<svg xmlns="http://www.w3.org/2000/svg" width="2051.833" height="2022.783" viewBox="0 0 2051.833 2022.783">
  <g id="PioneersIn_MapWithoutText" transform="translate(-75.731 -6827.339)">
    <g id="PioneersIn_Map_Shapes" transform="translate(-205.354 6524.754)" opacity="0.5">
      <path id="Path_635" data-name="Path 635" d="M14516.439,14950.458c.925.463,69.824,36.253,69.824,36.253l-2.533,103.182-67.291,12.449-94.285-32.413Z" transform="translate(-13461.646 -13907.754)" fill="rgba(214,182,227,0.2)"/>
      <g id="RED_PATHS" data-name="RED PATHS" transform="translate(1161.523 541.223)" opacity="0.64">
        <path id="Path_553" data-name="Path 553" d="M5184.735,16600.771l-192.962-28.254,71.534,150.283Z" transform="translate(-4890.012 -16571.918)" fill="#e3b6bc"/>
        <path id="Path_554" data-name="Path 554" d="M4850.508,16750.453l144.271,37.871-56.506,86.563h-79.95Z" transform="translate(-4558.791 -16571.918)" fill="rgba(227,182,188,0.49)"/>
        <path id="Path_555" data-name="Path 555" d="M5033.852,16722.8l117.821,28.854-156.895,50.5Z" transform="translate(-4859.956 -16571.918)" fill="#e3b6bc"/>
        <path id="Path_556" data-name="Path 556" d="M5151.072,16874.887l-163.507-71.535,156.895-50.494Z" transform="translate(-4852.142 -16571.918)" fill="#e3b6bc"/>
        <path id="Path_557" data-name="Path 557" d="M5058.5,16657.277l52.9,93.176-117.22-27.652Z" transform="translate(-4819.08 -16571.918)" fill="rgba(227,182,188,0.48)"/>
        <path id="Path_558" data-name="Path 558" d="M5047.678,16700.559l-78.146-100.99-55.905,57.709,53.5,93.775Z" transform="translate(-4674.809 -16571.918)" fill="rgba(227,182,188,0.48)"/>
        <path id="Path_559" data-name="Path 559" d="M5111.109,16634.365l101.761-62.447,73.626,154.93Z" transform="translate(-5111.109 -16571.918)" fill="#e3b6bc"/>
        <path id="Path_560" data-name="Path 560" d="M5246.869,16805.154l-134.893-171.83,174.35,92.428Z" transform="translate(-5113.949 -16571.918)" fill="rgba(227,182,188,0.61)"/>
        <path id="Path_561" data-name="Path 561" d="M4993.532,16787.684l-63.49-87.395-79.534,50.863Z" transform="translate(-4557.544 -16571.918)" fill="#e3b6bc"/>
      </g>
      <path id="Path_59" data-name="Path 59" d="M99.586,7.8,0,27.243,137.7,161.135l194.921,197.52L277.181,175.862,143.768,161.135,317.9,100.493,152.431,0Z" transform="translate(1009.457 610.541) rotate(-3)" fill="none" stroke="rgba(112,112,112,0.16)" stroke-width="1"/>
      <path id="Path_60" data-name="Path 60" d="M142.942,200.985,101.359,47.647,74.5,0,0,63.241,142.942,200.985Z" transform="translate(1003.051 571.84) rotate(-3)" fill="none" stroke="rgba(112,112,112,0.32)" stroke-width="1"/>
      <path id="Path_64" data-name="Path 64" d="M53.711,181.06l83.167-32.054L159.4,79.7,0,0,131.68,140.344l65.214,73.791,166.093-92.851L243.435,84.9,197.173,213.061l-.279,1.074" transform="translate(1297.283 773.296) rotate(-3)" fill="none" stroke="rgba(112,112,112,0.32)" stroke-width="1"/>
      <path id="Path_65" data-name="Path 65" d="M0,169.161,12.128,17.326l124.75,171.531,162-40.716L181.927,112.621,304.944,0" transform="translate(1147.157 590.313) rotate(-3)" fill="none" stroke="rgba(112,112,112,0.32)" stroke-width="1"/>
      <path id="Path_59-2" data-name="Path 59" d="M-4.192,155.548l10.657.559L177.6,175.862h0l40.717-75.37L55.021.288Z" transform="translate(734.697 1075.329) rotate(-3)" fill="none" stroke="rgba(112,112,112,0.32)" stroke-width="1"/>
      <path id="Path_60-2" data-name="Path 60" d="M126.678,0,60.062,83.785,0,160.743l106.1,21.733,56.96,110.339L143.608,136.242Z" transform="translate(576.738 1044.571) rotate(-3)" fill="none" stroke="rgba(112,112,112,0.32)" stroke-width="1"/>
      <path id="Path_62" data-name="Path 62" d="M0,56.31,101.359,0,266.947,39.689,332.5,80.168h0" transform="translate(785.388 1016.284) rotate(-3)" fill="none" stroke="rgba(112,112,112,0.32)" stroke-width="1"/>
      <path id="Path_63" data-name="Path 63" d="M23.452,120.919,0,0Z" transform="translate(1054.637 1193.804) rotate(-3)" fill="none" stroke="rgba(112,112,112,0.32)" stroke-width="1"/>
      <path id="Path_64-2" data-name="Path 64" d="M53.711,181.06l85.031-35.622,19.032-66.567L0,0,53.711,181.06l85.031-35.622,104.693,75.473,119.552-99.627L243.435,84.9V212.248L162.476,84.7" transform="translate(923.073 1243.296) rotate(-3)" fill="none" stroke="rgba(112,112,112,0.32)" stroke-width="1"/>
      <path id="Path_65-2" data-name="Path 65" d="M0,67.016,137.149,82.2h0L274,41.386,182.2,5.964,208.37,0" transform="translate(778.26 1166.838) rotate(-3)" fill="none" stroke="rgba(112,112,112,0.32)" stroke-width="1"/>
      <path id="Path_487" data-name="Path 487" d="M121.505,0,0,182.477" transform="translate(1112.965 1000.015) rotate(-3)" fill="none" stroke="rgba(112,112,112,0.32)" stroke-width="1"/>
      <path id="Path_489" data-name="Path 489" d="M146.986,0,0,132.221" transform="translate(1340.534 1050.738) rotate(-3)" fill="none" stroke="rgba(112,112,112,0.32)" stroke-width="1"/>
      <path id="Path_568" data-name="Path 568" d="M0,110.166,75.665,0" transform="translate(1048.872 1082.562) rotate(-3)" fill="none" stroke="rgba(112,112,112,0.32)" stroke-width="1"/>
      <path id="Path_149" data-name="Path 149" d="M2097.858,8907.686v.48l16.416,385.437-69.866-117.237,58.511-143.621" transform="translate(-206.403 -7979.911)" fill="none" stroke="rgba(112,112,112,0.32)" stroke-width="1" opacity="0.5"/>
      <path id="Path_150" data-name="Path 150" d="M2044.408,9293.6" transform="translate(-405.796 -8109.695)" fill="none" stroke="rgba(112,112,112,0.32)" stroke-width="1"/>
      <path id="Path_157" data-name="Path 157" d="M2336.1,9058.969c0,9.3-11.712,101.791-11.712,101.791" transform="translate(-977.47 -8102.702)" fill="none" stroke="rgba(112,112,112,0.32)" stroke-width="1"/>
      <g id="Path_36" data-name="Path 36" transform="translate(720.035 444.004)" fill="#03dee7" opacity="0">
        <path d="M59.557,3.1l-54.91.837V28.7h54.91Z" stroke="none"/>
        <path d="M 58.55743026733398 4.119836807250977 L 5.647312164306641 4.92591667175293 L 5.647312164306641 27.69968795776367 L 58.55743026733398 27.69968795776367 L 58.55743026733398 4.119836807250977 M 59.55743026733398 3.104488372802734 L 59.55743026733398 28.6996898651123 L 4.647312164306641 28.6996898651123 L 4.647312164306641 3.9410400390625 L 59.55743026733398 3.104488372802734 Z" stroke="none" fill="rgba(112,112,112,0.32)"/>
      </g>
      <g id="purple_paths" data-name="purple paths" transform="translate(286.129 470.743)">
        <path id="Path_37" data-name="Path 37" d="M75.28,2.032,1.434,1.122V13.866l73.847.607Z" transform="translate(-1.434 -1.122)" fill="#03dee7" opacity="0"/>
        <path id="Path_176" data-name="Path 176" d="M2901.342,12670.063l-170.442-91.71h0l-50.375,158.96,181.05,9.8,4.474-1.823Z" transform="translate(-2227.647 -11977.172)" fill="rgba(214,182,227,0.6)"/>
        <path id="Path_177" data-name="Path 177" d="M2663.432,12669.815l1.664-1.245,93.713,31.413-130.212,45.363Z" transform="translate(-1990.515 -11976.438)" fill="#d6b6e3"/>
        <path id="Path_178" data-name="Path 178" d="M2990.953,12746.764l-138.33-8.295h0l-43.668-2.091,14.951,98.528h0l167.047-88.143" transform="translate(-2357.916 -11976.438)" fill="rgba(214,182,227,0.81)"/>
        <path id="Path_179" data-name="Path 179" d="M2628.317,12578l99.621-61.484,167.579,30.968L2853.236,12604l-53.823,66.161h0Z" transform="translate(-2126.944 -11976.438)" fill="rgba(214,182,227,0.21)"/>
        <path id="Path_180" data-name="Path 180" d="M3009.76,12726.884l47.8,10.291-35.033-192.7,87.627,32.946-52.594,159.753Z" transform="translate(-2606.08 -11976.794)" fill="rgba(214,182,227,0.25)"/>
      </g>
      <path id="Path_482" data-name="Path 482" d="M2448.926,17238.377l-120.128,27.4" transform="translate(-1051.705 -15615.695)" fill="none" stroke="rgba(112,112,112,0.32)" stroke-width="1"/>
      <path id="Path_484" data-name="Path 484" d="M2621.417,17207.807l97.27-10.537" transform="translate(-1614.083 -15615.695)" fill="none" stroke="rgba(112,112,112,0.32)" stroke-width="1"/>
      <g id="ORANGE_PATHS" data-name="ORANGE PATHS" transform="translate(985.203 1342.379)" opacity="0.58">
        <path id="Path_476" data-name="Path 476" d="M2422.92,17004.7l11.934,77-323.072-123.139,311.706,45.107Z" transform="translate(-1805.82 -16958.074)" fill="rgba(251,195,158,0.44)"/>
        <path id="Path_477" data-name="Path 477" d="M2113.828,17066.578l308.745,48.51,125.4-32.451-205.243-36.125-228.9,20.066,115.908-108.5,192.836,157.014" transform="translate(-1920.985 -16958.074)" fill="rgba(251,195,158,0.68)"/>
        <path id="Path_478" data-name="Path 478" d="M2013.351,16966.58l-82.872,37.746,12.016,79.15L2123.741,17035" transform="translate(-1313.403 -16958.074)" fill="rgba(251,195,158,0.6)"/>
        <path id="Path_479" data-name="Path 479" d="M2353.616,17197.281l4.215,157.01-95.892-146.473-23.183-170.709,90.623,65.334,104.322-36.883,61.118,122.236,155.951,48,90.047-121.768-246,73.764" transform="translate(-2238.757 -16958.074)" fill="rgba(251,195,158,0.27)"/>
        <path id="Path_480" data-name="Path 480" d="M2328.8,17113.877l88.881,79.949-97.692,95.131-81.139,103.268v-157.008Z" transform="translate(-1826.83 -16958.074)" fill="rgba(251,195,158,0.53)"/>
        <path id="Path_481" data-name="Path 481" d="M2531.119,17264.721l123.289,127.5-191.783,23.184-103.268-63.225,171.762-87.463-171.762-67.439-31.613-98,165.439,87.461Z" transform="translate(-2241.337 -16958.074)" fill="rgba(251,195,158,0.57)"/>
        <path id="Path_483" data-name="Path 483" d="M2289.881,17326.928l139.532,28.924,10.219,93.777-191.812-16.582" transform="translate(-1659.165 -17198.33)" fill="rgba(251,195,158,0.63)"/>
        <path id="Path_506" data-name="Path 506" d="M5131.611,17082.352l-320.319-123.1,109.883,86.768Z" transform="translate(-4503.086 -16958.074)" fill="rgba(251,195,158,0.12)"/>
        <path id="Path_507" data-name="Path 507" d="M5000.909,17187.354l-62.368-121.937,307.707,49.111Z" transform="translate(-4744.973 -16958.074)" fill="rgba(251,195,158,0.06)"/>
        <path id="Path_508" data-name="Path 508" d="M5150.235,17388.02v-150.855l-122.437,28.6,122.437,125.313" transform="translate(-4738.217 -16958.074)" fill="rgba(251,195,158,0.25)"/>
        <path id="Path_509" data-name="Path 509" d="M5163.358,17047.037l82.72,67.436-307.389-48.893Z" transform="translate(-4744.95 -16958.074)" fill="rgba(251,195,158,0.21)"/>
        <path id="Path_597" data-name="Path 597" d="M867.63,253.1" fill="none" stroke="#707070" stroke-width="1"/>
      </g>
      <path id="Path_485" data-name="Path 485" d="M4923.139,16654.3l13.938-51.221" transform="translate(-3435.196 -15615.695)" fill="none" stroke="rgba(112,112,112,0.32)" stroke-width="1"/>
      <path id="Path_490" data-name="Path 490" d="M4829.374,16420.186l-223.4-46.891" transform="translate(-3010.331 -15615.695)" fill="none" stroke="rgba(112,112,112,0.32)" stroke-width="1"/>
      <path id="Path_494" data-name="Path 494" d="M4405.759,16225.755s129.612,66.387,139.1,73.764,55.849,120.128,55.849,120.128l202.321,7.377" transform="translate(-2783.766 -15615.695)" fill="none" stroke="rgba(112,112,112,0.32)" stroke-width="1"/>
      <path id="Path_496" data-name="Path 496" d="M4288.792,16587.744" transform="translate(-2152.565 -15615.695)" fill="none" stroke="rgba(112,112,112,0.32)" stroke-width="1"/>
      <g id="GRAY_PATHS" data-name="GRAY PATHS" transform="translate(1627.67 801.838)">
        <path id="Path_187" data-name="Path 187" d="M1899.472,12557.063l-123.853-8.948,62.793,147.2,2.656,6.618,69.366,116.773Z" transform="translate(-1630.703 -12306.959)" fill="rgba(228,225,236,0.43)" stroke="rgba(112,112,112,0.09)" stroke-width="1"/>
        <path id="Path_189" data-name="Path 189" d="M1885.035,12923.929l-110.124-69.52,16.611-55.985,209.175,19.688Z" transform="translate(-1720.256 -12307.533)" fill="rgba(228,225,236,0.88)" stroke="rgba(112,112,112,0.09)" stroke-width="1"/>
        <path id="Path_190" data-name="Path 190" d="M1920.7,12711.014l-138.248,82.113,271.916,24.754-69.094-116.419Z" transform="translate(-1775.107 -12307.533)" fill="rgba(228,225,236,0.64)" stroke="rgba(112,112,112,0.09)" stroke-width="1"/>
        <path id="Path_192" data-name="Path 192" d="M1786.508,12506.687l43.915-64.311,155.775,115.239-123.517-9.465Z" transform="translate(-1717.356 -12307.533)" fill="rgba(228,225,236,0.72)" stroke="rgba(112,112,112,0.09)" stroke-width="1"/>
        <path id="Path_193" data-name="Path 193" d="M1987.639,12383.063l-45.141,85.548,69.531,37.86,43.32-64.07Z" transform="translate(-1942.498 -12307.533)" fill="rgba(228,225,236,0.46)" stroke="rgba(112,112,112,0.09)" stroke-width="1"/>
        <path id="Path_497" data-name="Path 497" d="M4527.913,16551.279l77.816-132.936,77.816,249.66Z" transform="translate(-4414.107 -16417.533)" fill="#e4e1ec" stroke="rgba(112,112,112,0.09)" stroke-width="1"/>
        <path id="Path_498" data-name="Path 498" d="M4605.728,16489.676l146.715-72.143-78.626,136.178Z" transform="translate(-4560.822 -16417.533)" fill="rgba(228,225,236,0.88)" stroke="rgba(112,112,112,0.09)" stroke-width="1"/>
        <path id="Path_499" data-name="Path 499" d="M4527.912,16427.023l76.48,243.412-6.484-133.746Z" transform="translate(-4334.955 -16417.533)" fill="#e4e1ec" stroke="rgba(112,112,112,0.09)" stroke-width="1"/>
        <path id="Path_188" data-name="Path 188" d="M1881.478,12636.3,1845,12549.119Z" transform="translate(-1699.412 -12307.533)" fill="#e4e1ec"/>
        <path id="Path_652" data-name="Path 652" d="M1735.394,1162.3l39.839-116.314,61.181,147.972Z" transform="translate(-1627.67 -801.838)" fill="rgba(228,225,236,0.83)"/>
        <path id="Path_653" data-name="Path 653" d="M1773.81,1206.052l67.378-10.437L1734.33,1161.29Z" transform="translate(-1627.67 -801.838)" fill="rgba(228,225,236,0.57)"/>
      </g>
      <g id="GREEN_PATHS" data-name="GREEN PATHS" transform="translate(890.595 603.188)">
        <path id="Path_521" data-name="Path 521" d="M5393.35,16626.654l141.075-86.941L5405.2,16463.6Z" transform="translate(-5393.35 -16218.884)" fill="rgba(184,243,177,0.25)"/>
        <path id="Path_522" data-name="Path 522" d="M5521.955,16474.27,5294,16464.229l56.117-113.481,107.247,15.588Z" transform="translate(-5281.53 -16218.884)" fill="rgba(184,243,177,0.54)"/>
        <path id="Path_523" data-name="Path 523" d="M5296.009,16610.516l-108.185-25.047,6.624-112.1,79.25-41.756Z" transform="translate(-4953.294 -16218.884)" fill="rgba(184,243,177,0.56)"/>
        <path id="Path_524" data-name="Path 524" d="M5440.7,16585.08l-1.56,2.822-67.987,69.873-161.158-30.7,140.518-88.146,90.187,46.148" transform="translate(-5208.661 -16218.884)" fill="rgba(184,243,177,0.5)"/>
        <path id="Path_525" data-name="Path 525" d="M5191.339,16798.051l3.432-213.576,108.485,26.029Z" transform="translate(-4960.17 -16218.884)" fill="rgba(184,243,177,0.24)"/>
        <path id="Path_526" data-name="Path 526" d="M5177.188,16251.979l207.2,179.383,81.538-43.646-136.216-7.194-91.611-13.909-108.4-15.828Z" transform="translate(-5061.209 -16218.884)" fill="rgba(184,243,177,0.35)"/>
        <path id="Path_527" data-name="Path 527" d="M5369.026,16229.436l-99.326,25,147.347,125.578Z" transform="translate(-5152.323 -16218.884)" fill="rgba(184,243,177,0.18)"/>
        <path id="Path_528" data-name="Path 528" d="M5268.8,16341.19l-96.407-122.307-2.878,161.637Z" transform="translate(-4903.888 -16218.884)" fill="rgba(184,243,177,0.43)"/>
        <path id="Path_529" data-name="Path 529" d="M5368.516,16694.227l-68.588-36.451,70.562-72.9Z" transform="translate(-5135.993 -16218.884)" fill="rgba(184,243,177,0.51)"/>
        <path id="Path_530" data-name="Path 530" d="M5358.192,16380.016l-25.039,94.32-63.979-107.713Z" transform="translate(-5092.941 -16218.884)" fill="rgba(184,243,177,0.18)"/>
        <path id="Path_531" data-name="Path 531" d="M5293.711,16463.6l228.243,10.8-6.272,112.16-96.477-48.209Z" transform="translate(-5281.241 -16218.884)" fill="rgba(184,243,177,0.16)"/>
        <path id="Path_532" data-name="Path 532" d="M5269.27,16387.725c-.684-.541-39.813-46.723-39.813-46.723l-99.753,39.969Z" transform="translate(-4864.55 -16218.884)" fill="rgba(184,243,177,0.18)"/>
        <path id="Path_533" data-name="Path 533" d="M5317.442,16218.884l-51.937,10.44,48.248,151.838Z" transform="translate(-5048.522 -16218.884)" fill="rgba(184,243,177,0.39)"/>
        <path id="Path_534" data-name="Path 534" d="M5293.8,16431.361l-57.1-50.414-24.416,93.785Z" transform="translate(-4971.668 -16218.884)" fill="rgba(184,243,177,0.64)"/>
      </g>
      <path id="Path_542" data-name="Path 542" d="M5597.716,16597.5c-9.021-6.937-105.483-83.109-107.287-81.3s-120.546,81.3-120.546,81.3" transform="translate(-4519.58 -16030.695)" fill="none" stroke="rgba(112,112,112,0.32)" stroke-width="1"/>
      <path id="Path_543" data-name="Path 543" d="M5313.2,16546.672" transform="translate(-4178.38 -16030.695)" fill="none" stroke="rgba(112,112,112,0.32)" stroke-width="1"/>
      <g id="OLD_PURPLE_PATHS" data-name="OLD PURPLE PATHS" transform="translate(1442.73 608.89)">
        <path id="Path_510" data-name="Path 510" d="M4939.568,16617.529l-67.939-37.99-142.788,79.811,158.375,21.2Z" transform="translate(-4686.12 -16224.585)" fill="rgba(197,188,220,0.49)"/>
        <path id="Path_511" data-name="Path 511" d="M4780.524,16659.98l-129.947,20.771,51.321-63.312Z" transform="translate(-4448.812 -16224.585)" fill="rgba(197,188,220,0.7)"/>
        <path id="Path_512" data-name="Path 512" d="M4742.632,16778.98l39.33-119.812-131.9,21.584Z" transform="translate(-4449.736 -16224.585)" fill="rgba(197,188,220,0.17)"/>
        <path id="Path_513" data-name="Path 513" d="M4942.171,16680.549l-10.386,223.713s-151.564-83.455-150.125-83.936S4942.171,16680.549,4942.171,16680.549Z" transform="translate(-4741.531 -16224.585)" fill="rgba(197,188,220,0.7)"/>
        <path id="Path_514" data-name="Path 514" d="M4688.914,16904.262l103.362-125.186-92.569-97.365Z" transform="translate(-4498.9 -16224.585)" fill="rgba(197,188,220,0.49)"/>
        <path id="Path_515" data-name="Path 515" d="M4781.483,16659.168V16820.8l161.637-140.533Z" transform="translate(-4742.314 -16224.585)" fill="rgba(197,188,220,0.17)"/>
        <path id="Path_516" data-name="Path 516" d="M4791.558,16820.8l-140.981,83.467,102.642-125.186h0Z" transform="translate(-4459.845 -16224.585)" fill="rgba(197,188,220,0.75)"/>
        <path id="Path_517" data-name="Path 517" d="M4938.8,16576.893v3.023l-141.948,79.25,17-63.969Z" transform="translate(-4753.369 -16224.585)" fill="rgba(197,188,220,0.75)"/>
        <path id="Path_491" data-name="Path 491" d="M4528.036,16797.535l-233.445-129.316,11.244,261.164Z" transform="translate(-3840.337 -16224.585)" fill="rgba(197,188,220,0.1)"/>
        <path id="Path_492" data-name="Path 492" d="M4294.153,16669.592l119.966,64.035,119.146-148.541-244.472-45.311" transform="translate(-3839.767 -16224.585)" fill="rgba(197,188,220,0.66)"/>
        <path id="Path_493" data-name="Path 493" d="M4663.93,16584.033c-1.054-10.537-115.092-156.8-115.092-156.8l-260.045-127.71,54.222,119.722,75.446,119.092" transform="translate(-3970.433 -16224.585)" fill="rgba(197,188,220,0.32)"/>
        <path id="Path_495" data-name="Path 495" d="M4607.35,16425.969l-127.5,114.859-76.193-123.295" transform="translate(-4028.712 -16224.585)" fill="rgba(197,188,220,0.71)"/>
        <path id="Path_500" data-name="Path 500" d="M4891.045,16299.519l-163.079,74.213-64.036-88.354,89.164-60.793Z" transform="translate(-4572.685 -16224.585)" fill="rgba(197,188,220,0.31)"/>
        <path id="Path_501" data-name="Path 501" d="M4611.394,16458.842l130.5,33.234,142.662-72.141-217.236-47.015Z" transform="translate(-4513.664 -16224.585)" fill="rgba(197,188,220,0.24)"/>
        <path id="Path_502" data-name="Path 502" d="M4798.433,16461.664l-40.123,131.82,162.727-102.3Z" transform="translate(-4697.058 -16224.585)" fill="rgba(197,188,220,0.61)"/>
        <path id="Path_503" data-name="Path 503" d="M4898.538,16461.664h83.751l-40.584,131.455-61.246-63.09Z" transform="translate(-4880.459 -16224.585)" fill="rgba(197,188,220,0.26)"/>
        <path id="Path_504" data-name="Path 504" d="M4769.337,16299.548l-162.116,75.446,219.48,46.141Z" transform="translate(-4451.632 -16224.585)" fill="rgba(197,188,220,0.73)"/>
        <path id="Path_548" data-name="Path 548" d="M4429.561,16994.539v218.939l-117.768-66.959Z" transform="translate(-3736.064 -16639.586)" fill="none"/>
        <path id="Path_505" data-name="Path 505" d="M4878.714,16576.984l-126.648,18.617,163.7-104.309,7.379,1.844Z" transform="translate(-4692.924 -16224.585)" fill="rgba(197,188,220,0.52)" stroke="rgba(112,112,112,0.32)" stroke-width="1"/>
      </g>
      <path id="Path_552" data-name="Path 552" d="M5435.918,17624.473" transform="translate(-4423.817 -16030.695)" fill="none" stroke="rgba(255,255,255,0.78)" stroke-width="1"/>
      <path id="Path_539" data-name="Path 539" d="M5775.656,16182.5l-203.921,78.062" transform="translate(-4922.371 -15615.695)" fill="#a1cdde" stroke="rgba(112,112,112,0.32)" stroke-width="1"/>
      <g id="AQUA_PATHS" data-name="AQUA PATHS" transform="translate(421.829 485.23)">
        <path id="Path_562" data-name="Path 562" d="M5369.987,16599.168l154.1,69.24,73.629-71.494-107.731-80.988Z" transform="translate(-4941.513 -16515.926)" fill="rgba(161,205,222,0.14)"/>
        <path id="Path_563" data-name="Path 563" d="M5665.232,17041.654l11.723-165.162-131.253,94.26Z" transform="translate(-5196.467 -16515.926)" fill="rgba(161,205,222,0.32)"/>
        <path id="Path_564" data-name="Path 564" d="M5544.279,16860.484l265.694,14.584-113.468-75.764Z" transform="translate(-5328.063 -16515.926)" fill="rgba(161,205,222,0.62)"/>
        <path id="Path_565" data-name="Path 565" d="M170.447,135.133l-179.464,95.5,98.885-188.2,80.579,92.7" transform="matrix(-0.755, -0.656, 0.656, -0.755, 268.513, 250.805)" fill="rgba(161,205,222,0.32)"/>
        <path id="Path_566" data-name="Path 566" d="M5709.817,17103.557l-21.271-134.1-26.039,115.313Z" transform="translate(-5340.729 -16515.926)" fill="rgba(161,205,222,0.32)"/>
        <path id="Path_567" data-name="Path 567" d="M5599.793,16676.8l142.006,122.854,57.732-201.107Z" transform="translate(-5373.134 -16515.926)" fill="rgba(161,205,222,0.65)"/>
        <path id="Path_537" data-name="Path 537" d="M5790.406,16253.852l-157.1-69.683h0l110.4,161.7-168.278,38.154,113.461,76.4-131.982,94.92,118.071,71.77-99.185,60.512-21.03-130.609-25.417,112.043-42.1-15.746,67.518-97.969-134.766-110.379,268.892,15.459" transform="translate(-5207.21 -16100.926)" fill="rgba(161,205,222,0.16)"/>
      </g>
      <g id="YELLOW_PATHS" data-name="YELLOW PATHS" transform="translate(1211.39 771.027)">
        <path id="Path_181" data-name="Path 181" d="M2335.712,12667.705l-67.426,37.415-68.074-17.649v1.632l22.206,113.578,83.728-41.5s28.919-48.78,29.567-50.236,0-44.776,0-44.776" transform="translate(-2064.583 -12276.723)" fill="rgba(239,226,201,0.52)"/>
        <path id="Path_182" data-name="Path 182" d="M2229.339,12792.855l-174.839-32.767,29.487-49.509Z" transform="translate(-1812.209 -12276.723)" fill="#efe2c9"/>
        <path id="Path_183" data-name="Path 183" d="M2054.5,12849.8l69.029,9.746,240.672,33.98,27.3-101.173-174.478-32.282-83.764,42.119Z" transform="translate(-1974.371 -12276.723)" fill="rgba(239,226,201,0.49)"/>
        <path id="Path_185" data-name="Path 185" d="M2471.63,12455.272a16.554,16.554,0,0,1,0-2.379l-55.406-146.435-6.715-29.736-85.375,45.086L2345.966,12500l125.663-43.795h0Z" transform="translate(-2324.134 -12276.723)" fill="rgba(239,226,201,0.25)"/>
        <path id="Path_184" data-name="Path 184" d="M2336.372,12482.217c-1.82-.729-60.645-62.633-60.645-62.633l-84.671,38.275-12.319,105.691h0l139.974-13.975Z" transform="translate(-2043.48 -12276.723)" fill="rgba(239,226,201,0.67)"/>
        <path id="Path_488" data-name="Path 488" d="M136.891,136.216l16.751-67.249L115.888,1.718l21,134.5L0,0,12.545,136.216Z" transform="translate(272.28 273.959) rotate(90)" fill="#efe2c9"/>
        <path id="Path_518" data-name="Path 518" d="M4823.032,16908.428l-16.321,58.465-80.6,36.328,27.246-100.469Z" transform="translate(-4335.513 -16386.723)" fill="rgba(239,226,201,0.9)"/>
        <path id="Path_519" data-name="Path 519" d="M5076.333,16661.623l-.127,114.621-134.378,20.953,134.506-135.574" transform="translate(-4804.529 -16386.723)" fill="rgba(239,226,201,0.34)"/>
        <path id="Path_520" data-name="Path 520" d="M5130.667,16459.875c-1.439,0-166.708-72.15-166.708-72.15l96.927,93.783,50.973,47.893Z" transform="translate(-4880.996 -16386.723)" fill="rgba(239,226,201,0.64)"/>
        <path id="Path_655" data-name="Path 655" d="M13090.457,10694.308" transform="translate(-12678.997 -10854.781)" fill="none" stroke="#707070" stroke-width="1"/>
        <path id="Path_656" data-name="Path 656" d="M12763.166,10858.009l64.276,178.03,82.772-37.918Z" transform="translate(-12678.997 -10854.781)" fill="rgba(239,226,201,0.44)"/>
      </g>
      <path id="Path_170" data-name="Path 170" d="M2928.862,12925.393l-232.608-90.415" transform="translate(-1942.096 -11505.695)" fill="none" stroke="rgba(112,112,112,0.32)" stroke-width="1"/>
      <g id="BLUE_PATHS" data-name="BLUE PATHS" transform="translate(751.361 993.656)">
        <path id="Path_171" data-name="Path 171" d="M2495.106,12688.472h0v.262l22.417,113.442L2439.2,12849.8h0l-125.752-30.034,67.629-67.5Z" transform="translate(-1899.312 -12499.352)" fill="rgba(158,193,251,0.39)"/>
        <path id="Path_172" data-name="Path 172" d="M2487.413,12819.07l-80.879-.128-1.589,7.418-13.656,60.394,107.545,69.374,114.816-106.4Z" transform="translate(-2073.491 -12499.794)" fill="rgba(158,193,251,0.18)"/>
        <path id="Path_173" data-name="Path 173" d="M2930.5,12819.07c-.213-.142-.974-.522-2.488-1.241-19.569-9.29-163.427-70.836-163.427-70.836l-167.111,88.3,235.041,90.771s81.753-37.269,81.753-39.674" transform="translate(-2597.477 -12499.966)" fill="rgba(158,193,251,0.51)"/>
        <path id="Path_174" data-name="Path 174" d="M2449.6,12699.765l55.657-9.369,12.158-2.047,111.344,63.392s-68.4,69.526-68.4,67.723S2449.6,12699.765,2449.6,12699.765Z" transform="translate(-2146.698 -12499.352)" fill="rgba(158,193,251,0.54)"/>
        <path id="Path_175" data-name="Path 175" d="M2517.8,12746.9l134.614-47.067,111.073,119.242h-80.234l-.642,0-.365-.166Z" transform="translate(-2349.633 -12499.352)" fill="#d9e7fe"/>
        <path id="Path_536" data-name="Path 536" d="M5304.3,16800.711l-112.384-190.9-113.674,190.9Z" transform="translate(-4708.885 -16609.352)" fill="rgba(158,193,251,0.23)"/>
        <path id="Path_486" data-name="Path 486" d="M190.992,222.3l63.664-111.15L190.992,0,64.027-1.822,0,111.15,190.992-1.822Z" transform="translate(594.093) rotate(90)" fill="rgba(158,193,251,0.66)"/>
        <path id="Path_570" data-name="Path 570" d="M5463.819,17345.408,5363.477,17451.3l83.233-37.918Z" transform="translate(-5130.638 -17024.352)" fill="rgba(158,193,251,0.38)"/>
        <path id="Path_631" data-name="Path 631" d="M14113.4,14557.036l138.261,119.625-150.884,60.113Z" transform="translate(-14213.007 -14901.41)" fill="rgba(161,205,222,0.82)"/>
        <path id="Path_632" data-name="Path 632" d="M13937.869,14587.093l76.344-93.777,98.586,61.316-98.586,87.765Z" transform="translate(-14213.007 -14901.41)" fill="rgba(161,205,222,0.31)"/>
        <path id="Path_633" data-name="Path 633" d="M14014.814,14642.4l85.962,94.378,12.022-179.738Z" transform="translate(-14213.007 -14901.41)" fill="rgba(161,205,222,0.31)"/>
      </g>
      <path id="Path_59-3" data-name="Path 59" d="M0,5.584,136.431,0,67.073,3.488Z" transform="translate(1346.491 1052.392) rotate(-3)" fill="none" stroke="rgba(112,112,112,0.06)" stroke-width="1"/>
      <path id="Path_60-3" data-name="Path 60" d="M169.442,212.235h0l-66.765-20.987,6.472-123.489L0,0H0L109.149,67.759,103.7,171.741l-1.1,21.009,16.389,114.289Z" transform="translate(1234.606 996.06) rotate(-3)" fill="none" stroke="rgba(112,112,112,0.06)" stroke-width="1"/>
      <path id="Path_61" data-name="Path 61" d="M495.041,173.646l87.126,10.517,35.487,4.576L467.908,64.65,402.641,0,421.9,127.433,365.389,187.99l-155.18-29.272,145.2-72.092L205.645,160.642l-8.423,160.722-32.513,47.824L79.5,405.437,0,448.618l305.729,59.548L164.709,369.188" transform="translate(1268.885 895.731) rotate(-3)" fill="none" stroke="rgba(112,112,112,0.06)" stroke-width="1"/>
      <path id="Path_63-2" data-name="Path 63" d="M52.441,485.769l80.37-84.046L140.52,240.25,0,151.487,52.511,65.84,199.785,0l65.841,126.755-1.538,128.819L199.785,0,113.352,132.959,67.035,193.415l73.756,46.007L174.4,329.3l23.442,66.617-65.037,5.808Z" transform="translate(1619.415 811.429) rotate(-3)" fill="none" stroke="rgba(112,112,112,0.06)" stroke-width="1"/>
      <path id="Path_64-3" data-name="Path 64" d="M0,100.115,83.167,68.061l17.9-56.282.1-1.878L34.588,0,77.969,59.4l111.755,80.567L309.275,40.339,34.588,0l66.579,9.9,88.557,121.4h0" transform="translate(1595.544 1289.319) rotate(-3)" fill="none" stroke="rgba(112,112,112,0.06)" stroke-width="1"/>
      <path id="Path_169" data-name="Path 169" d="M128.647,33.6C130.3,31.834,0,0,0,0" transform="translate(1366.347 952.086) rotate(-3)" fill="none" stroke="rgba(112,112,112,0.06)" stroke-width="1"/>
      <g id="GRAPHICS-DARK">
        <g id="Group_146" data-name="Group 146" transform="translate(325.328 406.512)" opacity="0.76">
          <path id="Path_578" data-name="Path 578" d="M19205.115,6259.772l265.439-51.506,216.994-29.184,44.639,159.671" transform="translate(-17875.613 -6179.082)" fill="none" stroke="#707070" stroke-width="1"/>
          <path id="Path_580" data-name="Path 580" d="M19112.359,6210.474l266.127,131.853,139.111-93.966" transform="translate(-17518.465 -6179.082)" fill="none" stroke="#707070" stroke-width="1"/>
          <path id="Path_581" data-name="Path 581" d="M19110.646,6743.924,18993.2,6890.149l117.445,68.385" transform="translate(-17300.387 -6179.082)" fill="none" stroke="#707070" stroke-width="1"/>
          <path id="Path_582" data-name="Path 582" d="M19115.807,6343.893l147.043,183.138-4.775-281L19069.117,6180l-72.131-82.288-150.354,111.75-133.086-119.878-194.039-8.127-16.254,58.923,210.293-50.8L19064.035,6180" transform="translate(-17255.785 -6179.082)" fill="none" stroke="#707070" stroke-width="1"/>
          <path id="Path_583" data-name="Path 583" d="M19714.994,7190.316l-37.957,82.757-140.6-31.25" transform="translate(-18248.117 -6179.082)" fill="none" stroke="#707070" stroke-width="1"/>
          <path id="Path_586" data-name="Path 586" d="M19405.146,7189.789h-74.336" transform="translate(-17862.746 -6179.082)" fill="none" stroke="#707070" stroke-width="1"/>
          <path id="Path_598" data-name="Path 598" d="M1583.037,911.173,1542.4,1012.765l-110.97,79.71" fill="none" stroke="#707070" stroke-width="1"/>
          <path id="Path_599" data-name="Path 599" d="M1440.027,1185.47l-119.565,52.359-160.2,28.133" fill="none" stroke="#707070" stroke-width="1"/>
          <path id="Path_600" data-name="Path 600" d="M1317.638,1237.35s145.276,169.656,146.292,163.562-22.35-213.342-22.35-213.342l37.006-65.645,65.15-110.96L1806.53,778.315" fill="none" stroke="#707070" stroke-width="1"/>
          <path id="Path_601" data-name="Path 601" d="M885.161,1394.883l169.579,163.328,13.285-186.772L853.9,1580.873l27.351-185.99H776.536V1330.8" fill="none" stroke="#707070" stroke-width="1"/>
        </g>
        <path id="Path_571" data-name="Path 571" d="M19622.422,6586.019c-5.15-22.319-15.451-206.027-15.451-206.027l-243.8,78.977" transform="translate(-17598.574 -5772.57)" fill="rgba(0,0,0,0)" stroke="rgba(255,255,255,0.78)" stroke-width="1" opacity="0.5"/>
        <path id="Path_572" data-name="Path 572" d="M19624.373,6379.992l-199.336-14.886-42.982,92.214" transform="translate(-17619.41 -5772.57)" fill="none" stroke="rgba(255,255,255,0.34)" stroke-width="1"/>
        <path id="Path_573" data-name="Path 573" d="M19530.6,6365.105l-151.607-107.062L19733,6380.735" transform="translate(-17724.973 -5772.57)" fill="rgba(0,0,0,0)" stroke="rgba(255,255,255,0.78)" stroke-width="1" opacity="0.5"/>
        <path id="Path_61-2" data-name="Path 61" d="M448.752,191.472l46.781,92.7L671.4,181.076,489.716,0l-178.2,92.983h0l65.33,153.934-41.583,77.1-172.4,78.835" transform="translate(945.385 464.673) rotate(-3)" fill="rgba(0,0,0,0)" stroke="rgba(255,255,255,0.78)" stroke-width="1" opacity="0.5"/>
        <path id="Path_62-2" data-name="Path 62" d="M0,56.31,101.359,0,291.083,38.118l167.2,51.112" transform="translate(1159.598 546.284) rotate(-3)" fill="rgba(0,0,0,0)" stroke="rgba(255,255,255,0.78)" stroke-width="1" opacity="0.5"/>
        <path id="Path_63-3" data-name="Path 63" d="M4.332,475.608V348.26l142.942,46.781L86.965,305.535,15.358,199.41,0,65.84,147.274,0,213.98,127.349,179.328,250.366,147.274,0,15.358,199.41,147.274,395.041l-65.84,84.9Z" transform="translate(1431.468 370.681) rotate(-3)" fill="rgba(0,0,0,0)" stroke="rgba(255,255,255,0.78)" stroke-width="1" opacity="0.5"/>
        <path id="Path_544" data-name="Path 544" d="M4686.492,16513.93l111.6,200.684" transform="translate(-3036.568 -16030.695)" fill="rgba(0,0,0,0)" stroke="rgba(255,255,255,0.78)" stroke-width="1" opacity="0.5"/>
        <path id="Path_550" data-name="Path 550" d="M5034.271,17676.605" transform="translate(-3388.242 -16030.695)" fill="none" stroke="rgba(255,255,255,0.78)" stroke-width="1"/>
        <path id="Path_551" data-name="Path 551" d="M4873.307,17530.088,4955,17607.3" transform="translate(-3380.287 -16030.695)" fill="none" stroke="rgba(255,255,255,0.78)" stroke-width="1"/>
        <path id="Path_636" data-name="Path 636" d="M14214.5,15238.535l-167.393-123.727" transform="translate(-13461.646 -13907.754)" fill="none" stroke="#707070" stroke-width="1" opacity="0.54"/>
        <path id="Path_637" data-name="Path 637" d="M14696.34,14902.575" transform="translate(-13461.646 -13907.754)" fill="none" stroke="#707070" stroke-width="1"/>
        <path id="Path_638" data-name="Path 638" d="M14156.117,15127.55c1.8-9.618,8.415-182.744,8.415-182.744" transform="translate(-13461.646 -13907.754)" fill="none" stroke="#707070" stroke-width="1" opacity="0.54"/>
        <path id="Path_639" data-name="Path 639" d="M14200,15137.168l-43.282-9.017" transform="translate(-13461.646 -13907.754)" fill="none" stroke="#707070" stroke-width="1"/>
        <path id="Path_641" data-name="Path 641" d="M14949.778,15406.642l89.708,78.61-98.493,95.257-82.31-50.865" transform="translate(-13461.646 -13907.754)" fill="none" stroke="#707070" stroke-width="1" opacity="0.54"/>
        <path id="Path_642" data-name="Path 642" d="M15106.536,15550.914l-67.05-64.737" transform="translate(-13461.646 -13907.754)" fill="none" stroke="#707070" stroke-width="1" opacity="0.54"/>
        <path id="Path_644" data-name="Path 644" d="M971.487,485.473l465.829-50.085L1263.448,543.593Z" fill="rgba(161,205,222,0.45)"/>
        <path id="Path_645" data-name="Path 645" d="M1459.125,569.138,1434.9,437.85,1263.755,541.786Z" fill="rgba(161,205,222,0.24)"/>
        <path id="Path_646" data-name="Path 646" d="M651,525.569c-2.345.781-97.682,59.1-97.682,59.1L651,644.319Z" fill="rgba(161,205,222,0.48)"/>
        <path id="Path_647" data-name="Path 647" d="M635.447,826.245,495.791,765.93l-85.453-12.207,64.826-75.981L556.2,734.358Z" fill="rgba(161,205,222,0.8)"/>
        <path id="Path_648" data-name="Path 648" d="M410.759,753.933,424.1,640.549,553.24,584.886Z" fill="rgba(161,205,222,0.69)"/>
        <path id="Path_649" data-name="Path 649" d="M1434.714,436.741,1625.122,612.38l-165.758-41.262Z" fill="rgba(161,205,222,0.56)"/>
        <path id="Path_650" data-name="Path 650" d="M2132.763,1182.6l28.914-139.1-23.444-70.333L2017.885,1118.52Z" fill="#fff" stroke="#707070" stroke-width="1"/>
        <path id="Path_651" data-name="Path 651" d="M1208.087,1799.264l172.371,165.792,13.415-189.05Z" fill="rgba(251,195,158,0.13)"/>
      </g>
      <g id="Group_152" data-name="Group 152" transform="translate(408.354 -325.754)" opacity="0.55">
        <path id="Path_602" data-name="Path 602" d="M14471.162,15505.191l92.355,204.746,75.021,184.428,204.743-21.1-10.941,134.414,131.288-85.962,69.76,156.339,143.579-55.532v205.693l-110.557-220.538h-234.07l131.288-85.962-116.858-48.452" transform="translate(-13870 -13582)" fill="none" stroke="#707070" stroke-width="1"/>
        <path id="Path_603" data-name="Path 603" d="M15176.968,16021.739l-109.406-14.849-104.717-82.836" transform="translate(-13870 -13582)" fill="none" stroke="#707070" stroke-width="1"/>
        <path id="Path_604" data-name="Path 604" d="M1124.063,1845.238l121.072-90.17L1227.1,1931.8" transform="translate(-31.471 494.407)" fill="none" stroke="#707070" stroke-width="1"/>
        <path id="Path_605" data-name="Path 605" d="M14100.281,14734.246l11.1-176.179" transform="translate(-13870 -13582)" fill="none" stroke="#707070" stroke-width="1"/>
        <path id="Path_606" data-name="Path 606" d="M14110.917,14551.594l-97.106-60.113,97.106-57.414" transform="translate(-13870 -13582)" fill="none" stroke="#707070" stroke-width="1"/>
        <path id="Path_607" data-name="Path 607" d="M15598.213,14876.132l97.685,27.352-214.905,121.909" transform="translate(-13870 -13582)" fill="none" stroke="#707070" stroke-width="1"/>
        <path id="Path_608" data-name="Path 608" d="M15695.9,14904.265l95.34,137.539-169.58-94.559-24.226-71.9" transform="translate(-13870 -13582)" fill="none" stroke="#707070" stroke-width="1"/>
        <path id="Path_609" data-name="Path 609" d="M15484.605,14719.963l212.2,183.947" transform="translate(-13870 -13582)" fill="none" stroke="#707070" stroke-width="1"/>
        <path id="Path_610" data-name="Path 610" d="M14722.727,14450.828l-289.06-58.579-125.816,82.835" transform="translate(-13870 -13582)" fill="none" stroke="#707070" stroke-width="1"/>
        <path id="Path_611" data-name="Path 611" d="M14111.379,14433.666c8.922-4.687,321.508-41.416,321.508-41.416" transform="translate(-13870 -13582)" fill="none" stroke="#707070" stroke-width="1"/>
        <path id="Path_612" data-name="Path 612" d="M13872.641,14661.968l140.6-168.128-127.379,53.921-13.219,114.207" transform="translate(-13870 -13582)" fill="none" stroke="#707070" stroke-width="1"/>
        <path id="Path_613" data-name="Path 613" d="M13885.859,14551.594l130.5,89.942,94.558-85.961" transform="translate(-13870 -13582)" fill="none" stroke="#707070" stroke-width="1"/>
        <path id="Path_614" data-name="Path 614" d="M14016.941,14641.536l83.232,94.268" transform="translate(-13870 -13582)" fill="none" stroke="#707070" stroke-width="1"/>
        <path id="Path_615" data-name="Path 615" d="M14094.044,14734.246l-138.86-61.315,61.315-30.057" transform="translate(-13870 -13582)" fill="none" stroke="#707070" stroke-width="1"/>
        <path id="Path_616" data-name="Path 616" d="M13937.15,14590.576l18.033,82.955-79.95-13.225" transform="translate(-13870 -13582)" fill="none" stroke="#707070" stroke-width="1"/>
        <path id="Path_617" data-name="Path 617" d="M13955.184,14673.531l-158.1,91.372,75.142-104-125.636,5.41,140.063-117.22" transform="translate(-13870 -13582)" fill="none" stroke="#707070" stroke-width="1"/>
        <path id="Path_618" data-name="Path 618" d="M14165.583,14945.246l-63.119-209.794" transform="translate(-13870 -13582)" fill="none" stroke="#707070" stroke-width="1"/>
        <path id="Path_619" data-name="Path 619" d="M15234.69,15501.952l160.2,235.221-142.227-20.317,339.938,177.393-197.711-160.982" transform="translate(-13870 -13582)" fill="none" stroke="#707070" stroke-width="1"/>
        <path id="Path_620" data-name="Path 620" d="M15229.9,15498.8l103.863-89.991-1.423-81.1" transform="translate(-13870 -13582)" fill="none" stroke="#707070" stroke-width="1"/>
        <path id="Path_621" data-name="Path 621" d="M15597.432,15090.143l25.672-146.135" transform="translate(-13870 -13582)" fill="none" stroke="#707070" stroke-width="1"/>
        <path id="Path_622" data-name="Path 622" d="M1593.885,34.145l87.374,164.868" transform="translate(-83.025 732.266)" fill="none" stroke="#707070" stroke-width="1"/>
        <path id="Path_623" data-name="Path 623" d="M14894.792,14343.075l-459.5,49.232" transform="translate(-13870 -13582)" fill="none" stroke="#707070" stroke-width="1"/>
        <path id="Path_624" data-name="Path 624" d="M15049.885,14216.118l-156.895,128.041" transform="translate(-13870 -13582)" fill="none" stroke="#707070" stroke-width="1"/>
        <path id="Path_625" data-name="Path 625" d="M15380.869,14348.572l-112.506,153.169" transform="translate(-13870 -13582)" fill="none" stroke="#707070" stroke-width="1"/>
        <path id="Path_626" data-name="Path 626" d="M14639.295,15894.248l192.241,111.058,204.753,70.34" transform="translate(-13870 -13582)" fill="none" stroke="#707070" stroke-width="1"/>
        <path id="Path_627" data-name="Path 627" d="M14329.782,15430.454l72.136,254.279,161.1,24.646" transform="translate(-13870 -13582)" fill="none" stroke="#707070" stroke-width="1"/>
        <path id="Path_628" data-name="Path 628" d="M14402.519,15684.132l69.131-182.744" transform="translate(-13870 -13582)" fill="none" stroke="#707070" stroke-width="1"/>
        <path id="Path_629" data-name="Path 629" d="M14634.791,15894.248l-231.205-208.863" transform="translate(-13870 -13582)" fill="none" stroke="#707070" stroke-width="1"/>
        <path id="Path_630" data-name="Path 630" d="M15108.659,15555.051l134.71,56.79,151.879,121.5" transform="translate(-13870 -13582)" fill="none" stroke="#707070" stroke-width="1"/>
        <path id="Path_640" data-name="Path 640" d="M674.5,896.075,752.634,928.8l98.876-60.233L561.869,810.1Z" fill="rgba(161,205,222,0.55)"/>
      </g>
      <path id="Path_596" data-name="Path 596" d="M1009.368,34.886l165.08,40.23-86.933,58.264Z" transform="translate(447.733 536.355)" fill="rgba(227,182,188,0.51)"/>
      <path id="Path_595" data-name="Path 595" d="M14218.611,15240.535l228.893,88.32,22.658,174.328-141.035-76.76Z" transform="translate(-13460.646 -13909.754)" fill="rgba(251,195,158,0.26)"/>
      <path id="Path_643" data-name="Path 643" d="M14697.325,14902.812l122.854-43.5-11.766,106.984Z" transform="translate(-13461.646 -13907.754)" fill="rgba(239,226,201,0.4)"/>
    </g>
    <g id="PioneersIn_Map_Nodes" transform="translate(171.529 6693.406)">
      <ellipse id="Ellipse_461" data-name="Ellipse 461" cx="6.235" cy="6.235" rx="6.235" ry="6.235" transform="translate(688.893 1310.752) rotate(-3)" fill="#2e2545"/>
      <ellipse id="Ellipse_462" data-name="Ellipse 462" cx="6.235" cy="6.235" rx="6.235" ry="6.235" transform="translate(718.893 1407.021) rotate(-3)" fill="#2e2545"/>
      <ellipse id="Ellipse_463" data-name="Ellipse 463" cx="6.235" cy="6.235" rx="6.235" ry="6.235" transform="translate(890.893 1473.648) rotate(-3)" fill="#2e2545"/>
      <ellipse id="Ellipse_464" data-name="Ellipse 464" cx="6.235" cy="6.235" rx="6.235" ry="6.235" transform="translate(855.893 1396.648) rotate(-3)" fill="#2e2545"/>
      <ellipse id="Ellipse_465" data-name="Ellipse 465" cx="6.235" cy="6.235" rx="6.235" ry="6.235" transform="translate(626.893 1417.559) rotate(-3)" fill="#2e2545"/>
      <ellipse id="Ellipse_466" data-name="Ellipse 466" cx="6.235" cy="6.235" rx="6.235" ry="6.235" transform="translate(721.168 1560.492) rotate(-3)" fill="#2e2545"/>
      <ellipse id="Ellipse_467" data-name="Ellipse 467" cx="6.235" cy="6.235" rx="6.235" ry="6.235" transform="translate(826.168 1625.16) rotate(-3)" fill="#2e2545"/>
      <ellipse id="Ellipse_557" data-name="Ellipse 557" cx="6.235" cy="6.235" rx="6.235" ry="6.235" transform="translate(907.168 1705.16) rotate(-3)" fill="#2e2545"/>
      <ellipse id="Ellipse_468" data-name="Ellipse 468" cx="6.235" cy="6.235" rx="6.235" ry="6.235" transform="translate(1011.84 1600.977) rotate(-3)" fill="#2e2545"/>
      <ellipse id="Ellipse_469" data-name="Ellipse 469" cx="6.235" cy="6.235" rx="6.235" ry="6.235" transform="translate(1013.556 1448.129) rotate(-3)" fill="#2e2545"/>
      <ellipse id="Ellipse_470" data-name="Ellipse 470" cx="6.235" cy="6.235" rx="6.235" ry="6.235" transform="translate(1103.828 1324.84) rotate(-3)" fill="#2e2545"/>
      <ellipse id="Ellipse_471" data-name="Ellipse 471" cx="6.235" cy="6.235" rx="6.235" ry="6.235" transform="translate(1228.756 1292.387) rotate(-3)" fill="#2e2545"/>
      <ellipse id="Ellipse_476" data-name="Ellipse 476" cx="6.235" cy="6.235" rx="6.235" ry="6.235" transform="translate(1408.756 1241.684) rotate(-3)" fill="#2e2545"/>
      <ellipse id="Ellipse_477" data-name="Ellipse 477" cx="6.235" cy="6.235" rx="6.235" ry="6.235" transform="translate(1298.926 1174.859) rotate(-3)" fill="#2e2545"/>
      <ellipse id="Ellipse_478" data-name="Ellipse 478" cx="6.235" cy="6.235" rx="6.235" ry="6.235" transform="translate(1021.392 1256.789) rotate(-3)" fill="#2e2545"/>
      <ellipse id="Ellipse_472" data-name="Ellipse 472" cx="6.235" cy="6.235" rx="6.235" ry="6.235" transform="translate(1404.203 1631.712) rotate(-3)" fill="#2e2545"/>
      <ellipse id="Ellipse_568" data-name="Ellipse 568" cx="6.235" cy="6.235" rx="6.235" ry="6.235" transform="translate(1395.651 1529.712) rotate(-3)" fill="#2e2545"/>
      <ellipse id="Ellipse_518" data-name="Ellipse 518" cx="6.235" cy="6.235" rx="6.235" ry="6.235" transform="translate(1192.756 1401.387) rotate(-3)" fill="#2e2545"/>
      <ellipse id="Ellipse_567" data-name="Ellipse 567" cx="6.235" cy="6.235" rx="6.235" ry="6.235" transform="translate(1260.756 1469.096) rotate(-3)" fill="#2e2545"/>
      <ellipse id="Ellipse_526" data-name="Ellipse 526" cx="6.235" cy="6.235" rx="6.235" ry="6.235" transform="translate(557.756 1601.977) rotate(-3)" fill="#2e2545"/>
      <ellipse id="Ellipse_544" data-name="Ellipse 544" cx="6.235" cy="6.235" rx="6.235" ry="6.235" transform="translate(717.615 1625.16) rotate(-3)" fill="#2e2545"/>
      <ellipse id="Ellipse_545" data-name="Ellipse 545" cx="6.235" cy="6.235" rx="6.235" ry="6.235" transform="translate(793.615 1810.16) rotate(-3)" fill="#2e2545"/>
      <ellipse id="Ellipse_546" data-name="Ellipse 546" cx="6.235" cy="6.235" rx="6.235" ry="6.235" transform="translate(999.615 1790.16) rotate(-3)" fill="#2e2545"/>
      <ellipse id="Ellipse_548" data-name="Ellipse 548" cx="6.235" cy="6.235" rx="6.235" ry="6.235" transform="translate(986.51 1922.16) rotate(-3)" fill="#2e2545"/>
      <ellipse id="Ellipse_549" data-name="Ellipse 549" cx="6.235" cy="6.235" rx="6.235" ry="6.235" transform="translate(1117.51 1842.16) rotate(-3)" fill="#2e2545"/>
      <ellipse id="Ellipse_551" data-name="Ellipse 551" cx="6.235" cy="6.235" rx="6.235" ry="6.235" transform="translate(1156.51 1927.16) rotate(-3)" fill="#2e2545"/>
      <ellipse id="Ellipse_552" data-name="Ellipse 552" cx="6.235" cy="6.235" rx="6.235" ry="6.235" transform="translate(1220.51 1924.608) rotate(-3)" fill="#2e2545"/>
      <ellipse id="Ellipse_553" data-name="Ellipse 553" cx="6.235" cy="6.235" rx="6.235" ry="6.235" transform="translate(1188.51 1993.608) rotate(-3)" fill="#2e2545"/>
      <ellipse id="Ellipse_554" data-name="Ellipse 554" cx="6.235" cy="6.235" rx="6.235" ry="6.235" transform="translate(1245.51 1973.608) rotate(-3)" fill="#2e2545"/>
      <ellipse id="Ellipse_555" data-name="Ellipse 555" cx="6.235" cy="6.235" rx="6.235" ry="6.235" transform="translate(1330.51 1940.264) rotate(-3)" fill="#2e2545"/>
      <ellipse id="Ellipse_556" data-name="Ellipse 556" cx="6.235" cy="6.235" rx="6.235" ry="6.235" transform="translate(1331.51 2144.264) rotate(-3)" fill="#2e2545"/>
      <ellipse id="Ellipse_527" data-name="Ellipse 527" cx="6.235" cy="6.235" rx="6.235" ry="6.235" transform="translate(483.756 1343.977) rotate(-3)" fill="#2e2545"/>
      <ellipse id="Ellipse_519" data-name="Ellipse 519" cx="6.235" cy="6.235" rx="6.235" ry="6.235" transform="translate(1485.756 1243.685) rotate(-3)" fill="#2e2545"/>
      <ellipse id="Ellipse_542" data-name="Ellipse 542" cx="6.235" cy="6.235" rx="6.235" ry="6.235" transform="translate(1370.756 1324.84) rotate(-3)" fill="#2e2545"/>
      <ellipse id="Ellipse_543" data-name="Ellipse 543" cx="6.235" cy="6.235" rx="6.235" ry="6.235" transform="translate(1383.862 1416.84) rotate(-3)" fill="#2e2545"/>
      <ellipse id="Ellipse_521" data-name="Ellipse 521" cx="6.235" cy="6.235" rx="6.235" ry="6.235" transform="translate(1549.756 1653.158) rotate(-3)" fill="#2e2545"/>
      <ellipse id="Ellipse_523" data-name="Ellipse 523" cx="6.235" cy="6.235" rx="6.235" ry="6.235" transform="translate(1238.957 1748.264) rotate(-3)" fill="#2e2545"/>
      <ellipse id="Ellipse_524" data-name="Ellipse 524" cx="6.235" cy="6.235" rx="6.235" ry="6.235" transform="translate(1749.756 1809.264) rotate(-3)" fill="#2e2545"/>
      <ellipse id="Ellipse_525" data-name="Ellipse 525" cx="6.235" cy="6.235" rx="6.235" ry="6.235" transform="translate(1492.309 1323.856) rotate(-3)" fill="#2e2545"/>
      <ellipse id="Ellipse_473" data-name="Ellipse 473" cx="6.235" cy="6.235" rx="6.235" ry="6.235" transform="translate(1095.756 1498.711) rotate(-3)" fill="#2e2545"/>
      <ellipse id="Ellipse_121" data-name="Ellipse 121" cx="6.235" cy="6.235" rx="6.235" ry="6.235" transform="translate(1259.935 889.387) rotate(-3)" fill="#2e2545"/>
      <ellipse id="Ellipse_479" data-name="Ellipse 479" cx="6.235" cy="6.235" rx="6.235" ry="6.235" transform="translate(1349.935 988.732) rotate(-3)" fill="#2e2545"/>
      <ellipse id="Ellipse_481" data-name="Ellipse 481" cx="6.235" cy="6.235" rx="6.235" ry="6.235" transform="translate(1391.007 869.732) rotate(-3)" fill="#2e2545"/>
      <ellipse id="Ellipse_480" data-name="Ellipse 480" cx="6.235" cy="6.235" rx="6.235" ry="6.235" transform="translate(1103.828 869.732) rotate(-3)" fill="#2e2545"/>
      <ellipse id="Ellipse_119" data-name="Ellipse 119" cx="6.235" cy="6.235" rx="6.235" ry="6.235" transform="translate(772.298 590.752) rotate(-3)" fill="#2e2545"/>
      <ellipse id="Ellipse_120" data-name="Ellipse 120" cx="6.235" cy="6.235" rx="6.235" ry="6.235" transform="translate(745.865 682.043) rotate(-3)" fill="#2e2545"/>
      <ellipse id="Ellipse_121-2" data-name="Ellipse 121" cx="6.235" cy="6.235" rx="6.235" ry="6.235" transform="translate(912.549 598.387) rotate(-3)" fill="#2e2545"/>
      <ellipse id="Ellipse_122" data-name="Ellipse 122" cx="6.235" cy="6.235" rx="6.235" ry="6.235" transform="translate(780.133 430.514) rotate(-3)" fill="#2e2545"/>
      <ellipse id="Ellipse_123" data-name="Ellipse 123" cx="6.235" cy="6.235" rx="6.235" ry="6.235" transform="translate(726.913 439.545) rotate(-3)" fill="#2e2545"/>
      <ellipse id="Ellipse_125" data-name="Ellipse 125" cx="6.235" cy="6.235" rx="6.235" ry="6.235" transform="translate(623.357 464.951) rotate(-3)" fill="#2e2545"/>
      <ellipse id="Ellipse_127" data-name="Ellipse 127" cx="6.235" cy="6.235" rx="6.235" ry="6.235" transform="translate(575.885 559.84) rotate(-3)" fill="#2e2545"/>
      <ellipse id="Ellipse_497" data-name="Ellipse 497" cx="6.235" cy="6.235" rx="6.235" ry="6.235" transform="translate(406.885 592.84) rotate(-3)" fill="#2e2545"/>
      <ellipse id="Ellipse_498" data-name="Ellipse 498" cx="6.235" cy="6.235" rx="6.235" ry="6.235" transform="translate(466.885 395.84) rotate(-3)" fill="#2e2545"/>
      <ellipse id="Ellipse_499" data-name="Ellipse 499" cx="6.235" cy="6.235" rx="6.235" ry="6.235" transform="translate(695.947 395.84) rotate(-3)" fill="#2e2545"/>
      <ellipse id="Ellipse_500" data-name="Ellipse 500" cx="6.235" cy="6.235" rx="6.235" ry="6.235" transform="translate(587.947 310.84) rotate(-3)" fill="#2e2545"/>
      <ellipse id="Ellipse_501" data-name="Ellipse 501" cx="6.235" cy="6.235" rx="6.235" ry="6.235" transform="translate(752.947 342.84) rotate(-3)" fill="#2e2545"/>
      <ellipse id="Ellipse_502" data-name="Ellipse 502" cx="6.235" cy="6.235" rx="6.235" ry="6.235" transform="translate(267.947 471.504) rotate(-3)" fill="#2e2545"/>
      <ellipse id="Ellipse_503" data-name="Ellipse 503" cx="6.235" cy="6.235" rx="6.235" ry="6.235" transform="translate(254.841 653.504) rotate(-3)" fill="#2e2545"/>
      <ellipse id="Ellipse_504" data-name="Ellipse 504" cx="6.235" cy="6.235" rx="6.235" ry="6.235" transform="translate(386.841 763.504) rotate(-3)" fill="#2e2545"/>
      <ellipse id="Ellipse_505" data-name="Ellipse 505" cx="6.235" cy="6.235" rx="6.235" ry="6.235" transform="translate(518.202 671.504) rotate(-3)" fill="#2e2545"/>
      <ellipse id="Ellipse_507" data-name="Ellipse 507" cx="6.235" cy="6.235" rx="6.235" ry="6.235" transform="translate(-44.798 677.504) rotate(-3)" fill="#2e2545"/>
      <ellipse id="Ellipse_560" data-name="Ellipse 560" cx="6.235" cy="6.235" rx="6.235" ry="6.235" transform="translate(-95.798 583.735) rotate(-3)" fill="#2e2545"/>
      <ellipse id="Ellipse_128" data-name="Ellipse 128" cx="6.235" cy="6.235" rx="6.235" ry="6.235" transform="translate(829.895 641.428) rotate(-3)" fill="#2e2545"/>
      <ellipse id="Ellipse_129" data-name="Ellipse 129" cx="6.235" cy="6.235" rx="6.235" ry="6.235" transform="translate(950.841 518.963) rotate(-3)" fill="#2e2545"/>
      <ellipse id="Ellipse_130" data-name="Ellipse 130" cx="6.235" cy="6.235" rx="6.235" ry="6.235" transform="translate(879.306 369.125) rotate(-3)" fill="#2e2545"/>
      <ellipse id="Ellipse_131" data-name="Ellipse 131" cx="6.235" cy="6.235" rx="6.235" ry="6.235" transform="translate(871.335 550.6) rotate(-3)" fill="#2e2545"/>
      <ellipse id="Ellipse_132" data-name="Ellipse 132" cx="6.235" cy="6.235" rx="6.235" ry="6.235" transform="translate(1069.787 548.94) rotate(-3)" fill="#2e2545"/>
      <ellipse id="Ellipse_133" data-name="Ellipse 133" cx="6.235" cy="6.235" rx="6.235" ry="6.235" transform="translate(1076.182 670.975) rotate(-3)" fill="#2e2545"/>
      <ellipse id="Ellipse_134" data-name="Ellipse 134" cx="6.235" cy="6.235" rx="6.235" ry="6.235" transform="translate(1058.406 736.836) rotate(-3)" fill="#2e2545"/>
      <ellipse id="Ellipse_135" data-name="Ellipse 135" cx="6.235" cy="6.235" rx="6.235" ry="6.235" transform="translate(976.802 776.076) rotate(-3)" fill="#2e2545"/>
      <ellipse id="Ellipse_137" data-name="Ellipse 137" cx="6.235" cy="6.235" rx="6.235" ry="6.235" transform="translate(1158.63 671.648) rotate(-3)" fill="#2e2545"/>
      <ellipse id="Ellipse_139" data-name="Ellipse 139" cx="6.235" cy="6.235" rx="6.235" ry="6.235" transform="translate(1213.898 582.594) rotate(-3)" fill="#2e2545"/>
      <ellipse id="Ellipse_140" data-name="Ellipse 140" cx="6.235" cy="6.235" rx="6.235" ry="6.235" transform="translate(1016.066 453.111) rotate(-3)" fill="#2e2545"/>
      <ellipse id="Ellipse_141" data-name="Ellipse 141" cx="6.235" cy="6.235" rx="6.235" ry="6.235" transform="translate(1071.721 395.252) rotate(-3)" fill="#2e2545"/>
      <ellipse id="Ellipse_142" data-name="Ellipse 142" cx="6.235" cy="6.235" rx="6.235" ry="6.235" transform="translate(1238.509 432.713) rotate(-3)" fill="#2e2545"/>
      <ellipse id="Ellipse_143" data-name="Ellipse 143" cx="6.235" cy="6.235" rx="6.235" ry="6.235" transform="translate(1116.697 324.219) rotate(-3)" fill="#2e2545"/>
      <ellipse id="Ellipse_144" data-name="Ellipse 144" cx="6.235" cy="6.235" rx="6.235" ry="6.235" transform="translate(1048.551 262.859) rotate(-3)" fill="#2e2545"/>
      <ellipse id="Ellipse_145" data-name="Ellipse 145" cx="6.235" cy="6.235" rx="6.235" ry="6.235" transform="translate(1193.406 191.586) rotate(-3)" fill="#2e2545"/>
      <ellipse id="Ellipse_562" data-name="Ellipse 562" cx="6.235" cy="6.235" rx="6.235" ry="6.235" transform="translate(1399.512 144.586) rotate(-3)" fill="#2e2545"/>
      <ellipse id="Ellipse_564" data-name="Ellipse 564" cx="6.235" cy="6.235" rx="6.235" ry="6.235" transform="translate(1617.912 198.138) rotate(-3)" fill="#2e2545"/>
      <ellipse id="Ellipse_565" data-name="Ellipse 565" cx="6.235" cy="6.235" rx="6.235" ry="6.235" transform="translate(1682.912 154.138) rotate(-3)" fill="#2e2545"/>
      <ellipse id="Ellipse_563" data-name="Ellipse 563" cx="6.235" cy="6.235" rx="6.235" ry="6.235" transform="translate(1206.512 134.586) rotate(-3)" fill="#2e2545"/>
      <ellipse id="Ellipse_147" data-name="Ellipse 147" cx="6.235" cy="6.235" rx="6.235" ry="6.235" transform="translate(1150.673 496.004) rotate(-3)" fill="#2e2545"/>
      <ellipse id="Ellipse_146" data-name="Ellipse 146" cx="6.235" cy="6.235" rx="6.235" ry="6.235" transform="translate(1268.291 310.031) rotate(-3)" fill="#2e2545"/>
      <ellipse id="Ellipse_511" data-name="Ellipse 511" cx="6.235" cy="6.235" rx="6.235" ry="6.235" transform="translate(1422.291 417.031) rotate(-3)" fill="#2e2545"/>
      <ellipse id="Ellipse_512" data-name="Ellipse 512" cx="6.235" cy="6.235" rx="6.235" ry="6.235" transform="translate(1624.465 435.031) rotate(-3)" fill="#2e2545"/>
      <ellipse id="Ellipse_515" data-name="Ellipse 515" cx="6.235" cy="6.235" rx="6.235" ry="6.235" transform="translate(1533.465 262.859) rotate(-3)" fill="#2e2545"/>
      <ellipse id="Ellipse_566" data-name="Ellipse 566" cx="6.235" cy="6.235" rx="6.235" ry="6.235" transform="translate(1454.465 376.859) rotate(-3)" fill="#2e2545"/>
      <ellipse id="Ellipse_516" data-name="Ellipse 516" cx="6.235" cy="6.235" rx="6.235" ry="6.235" transform="translate(1799.465 394.859) rotate(-3)" fill="#2e2545"/>
      <ellipse id="Ellipse_517" data-name="Ellipse 517" cx="6.235" cy="6.235" rx="6.235" ry="6.235" transform="translate(1753.465 234.859) rotate(-3)" fill="#2e2545"/>
      <ellipse id="Ellipse_126" data-name="Ellipse 126" cx="6.235" cy="6.235" rx="6.235" ry="6.235" transform="translate(682.841 575.463) rotate(-3)" fill="#2e2545"/>
      <ellipse id="Ellipse_119-2" data-name="Ellipse 119" cx="6.235" cy="6.235" rx="6.235" ry="6.235" transform="translate(355.088 1054.752) rotate(-3)" fill="#2e2545"/>
      <ellipse id="Ellipse_120-2" data-name="Ellipse 120" cx="6.235" cy="6.235" rx="6.235" ry="6.235" transform="translate(371.656 1152.043) rotate(-3)" fill="#2e2545"/>
      <ellipse id="Ellipse_121-3" data-name="Ellipse 121" cx="6.235" cy="6.235" rx="6.235" ry="6.235" transform="translate(538.339 1068.387) rotate(-3)" fill="#2e2545"/>
      <ellipse id="Ellipse_122-2" data-name="Ellipse 122" cx="6.235" cy="6.235" rx="6.235" ry="6.235" transform="translate(405.923 900.514) rotate(-3)" fill="#2e2545"/>
      <ellipse id="Ellipse_313" data-name="Ellipse 313" cx="6.235" cy="6.235" rx="6.235" ry="6.235" transform="translate(320.147 862.951) rotate(-3)" fill="#2e2545"/>
      <ellipse id="Ellipse_127-2" data-name="Ellipse 127" cx="6.235" cy="6.235" rx="6.235" ry="6.235" transform="translate(201.676 1029.84) rotate(-3)" fill="#2e2545"/>
      <ellipse id="Ellipse_129-2" data-name="Ellipse 129" cx="6.235" cy="6.235" rx="6.235" ry="6.235" transform="translate(576.631 988.963) rotate(-3)" fill="#2e2545"/>
      <ellipse id="Ellipse_130-2" data-name="Ellipse 130" cx="6.235" cy="6.235" rx="6.235" ry="6.235" transform="translate(505.096 839.125) rotate(-3)" fill="#2e2545"/>
      <ellipse id="Ellipse_133-2" data-name="Ellipse 133" cx="6.235" cy="6.235" rx="6.235" ry="6.235" transform="translate(701.972 1140.975) rotate(-3)" fill="#2e2545"/>
      <ellipse id="Ellipse_134-2" data-name="Ellipse 134" cx="6.235" cy="6.235" rx="6.235" ry="6.235" transform="translate(684.197 1206.836) rotate(-3)" fill="#2e2545"/>
      <ellipse id="Ellipse_135-2" data-name="Ellipse 135" cx="6.235" cy="6.235" rx="6.235" ry="6.235" transform="translate(602.593 1246.076) rotate(-3)" fill="#2e2545"/>
      <ellipse id="Ellipse_136" data-name="Ellipse 136" cx="6.235" cy="6.235" rx="6.235" ry="6.235" transform="translate(793.632 1269.777) rotate(-3)" fill="#2e2545"/>
      <ellipse id="Ellipse_137-2" data-name="Ellipse 137" cx="6.235" cy="6.235" rx="6.235" ry="6.235" transform="translate(784.42 1141.648) rotate(-3)" fill="#2e2545"/>
      <ellipse id="Ellipse_138" data-name="Ellipse 138" cx="6.235" cy="6.235" rx="6.235" ry="6.235" transform="translate(908.281 1170.119) rotate(-3)" fill="#2e2545"/>
      <ellipse id="Ellipse_143-2" data-name="Ellipse 143" cx="6.235" cy="6.235" rx="6.235" ry="6.235" transform="translate(742.487 794.219) rotate(-3)" fill="#2e2545"/>
      <ellipse id="Ellipse_509" data-name="Ellipse 509" cx="6.235" cy="6.235" rx="6.235" ry="6.235" transform="translate(739.697 906.395) rotate(-3)" fill="#2e2545"/>
      <ellipse id="Ellipse_510" data-name="Ellipse 510" cx="6.235" cy="6.235" rx="6.235" ry="6.235" transform="translate(671.092 868.395) rotate(-3)" fill="#2e2545"/>
      <ellipse id="Ellipse_144-2" data-name="Ellipse 144" cx="6.235" cy="6.235" rx="6.235" ry="6.235" transform="translate(646.341 747.941) rotate(-3)" fill="#2e2545"/>
      <ellipse id="Ellipse_126-2" data-name="Ellipse 126" cx="6.235" cy="6.235" rx="6.235" ry="6.235" transform="translate(308.631 1045.463) rotate(-3)" fill="#2e2545"/>
      <ellipse id="Ellipse_120-3" data-name="Ellipse 120" cx="6.235" cy="6.235" rx="6.235" ry="6.235" transform="translate(986.252 1120.043) rotate(-3)" fill="#2e2545"/>
      <ellipse id="Ellipse_489" data-name="Ellipse 489" cx="6.235" cy="6.235" rx="6.235" ry="6.235" transform="translate(1031.252 1024.043) rotate(-3)" fill="#2e2545"/>
      <ellipse id="Ellipse_490" data-name="Ellipse 490" cx="6.235" cy="6.235" rx="6.235" ry="6.235" transform="translate(960.252 1010.938) rotate(-3)" fill="#2e2545"/>
      <ellipse id="Ellipse_491" data-name="Ellipse 491" cx="6.235" cy="6.235" rx="6.235" ry="6.235" transform="translate(1097.275 985.938) rotate(-3)" fill="#2e2545"/>
      <ellipse id="Ellipse_492" data-name="Ellipse 492" cx="6.235" cy="6.235" rx="6.235" ry="6.235" transform="translate(963.697 885.938) rotate(-3)" fill="#2e2545"/>
      <ellipse id="Ellipse_493" data-name="Ellipse 493" cx="6.235" cy="6.235" rx="6.235" ry="6.235" transform="translate(851.697 820.231) rotate(-3)" fill="#2e2545"/>
      <ellipse id="Ellipse_494" data-name="Ellipse 494" cx="6.235" cy="6.235" rx="6.235" ry="6.235" transform="translate(739.697 1007.494) rotate(-3)" fill="#2e2545"/>
      <ellipse id="Ellipse_495" data-name="Ellipse 495" cx="6.235" cy="6.235" rx="6.235" ry="6.235" transform="translate(671.092 1020.6) rotate(-3)" fill="#2e2545"/>
      <ellipse id="Ellipse_496" data-name="Ellipse 496" cx="6.235" cy="6.235" rx="6.235" ry="6.235" transform="translate(849.092 1072.875) rotate(-3)" fill="#2e2545"/>
      <ellipse id="Ellipse_128-2" data-name="Ellipse 128" cx="6.235" cy="6.235" rx="6.235" ry="6.235" transform="translate(1070.282 1079.428) rotate(-3)" fill="#2e2545"/>
      <ellipse id="Ellipse_130-3" data-name="Ellipse 130" cx="6.235" cy="6.235" rx="6.235" ry="6.235" transform="translate(1119.693 807.125) rotate(-3)" fill="#2e2545"/>
      <ellipse id="Ellipse_133-3" data-name="Ellipse 133" cx="6.235" cy="6.235" rx="6.235" ry="6.235" transform="translate(1314.569 1118.723) rotate(-3)" fill="#2e2545"/>
      <ellipse id="Ellipse_482" data-name="Ellipse 482" cx="6.235" cy="6.235" rx="6.235" ry="6.235" transform="translate(1245.569 1112.723) rotate(-3)" fill="#2e2545"/>
      <ellipse id="Ellipse_483" data-name="Ellipse 483" cx="6.235" cy="6.235" rx="6.235" ry="6.235" transform="translate(1389.569 1030.723) rotate(-3)" fill="#2e2545"/>
      <ellipse id="Ellipse_484" data-name="Ellipse 484" cx="6.235" cy="6.235" rx="6.235" ry="6.235" transform="translate(1750.569 1007.488) rotate(-3)" fill="#2e2545"/>
      <ellipse id="Ellipse_559" data-name="Ellipse 559" cx="6.235" cy="6.235" rx="6.235" ry="6.235" transform="translate(1849.569 821.148) rotate(-3)" fill="#2e2545"/>
      <ellipse id="Ellipse_558" data-name="Ellipse 558" cx="6.235" cy="6.235" rx="6.235" ry="6.235" transform="translate(1775.569 863.18) rotate(-3)" fill="#2e2545"/>
      <ellipse id="Ellipse_485" data-name="Ellipse 485" cx="6.235" cy="6.235" rx="6.235" ry="6.235" transform="translate(1633.569 942.488) rotate(-3)" fill="#2e2545"/>
      <ellipse id="Ellipse_486" data-name="Ellipse 486" cx="6.235" cy="6.235" rx="6.235" ry="6.235" transform="translate(1751.569 792.488) rotate(-3)" fill="#2e2545"/>
      <ellipse id="Ellipse_487" data-name="Ellipse 487" cx="6.235" cy="6.235" rx="6.235" ry="6.235" transform="translate(1637.569 638.488) rotate(-3)" fill="#2e2545"/>
      <ellipse id="Ellipse_488" data-name="Ellipse 488" cx="6.235" cy="6.235" rx="6.235" ry="6.235" transform="translate(1377.902 511.488) rotate(-3)" fill="#2e2545"/>
      <ellipse id="Ellipse_134-3" data-name="Ellipse 134" cx="6.235" cy="6.235" rx="6.235" ry="6.235" transform="translate(1298.794 1174.836) rotate(-3)" fill="#2e2545"/>
      <ellipse id="Ellipse_135-3" data-name="Ellipse 135" cx="6.235" cy="6.235" rx="6.235" ry="6.235" transform="translate(1217.189 1214.076) rotate(-3)" fill="#2e2545"/>
      <ellipse id="Ellipse_138-2" data-name="Ellipse 138" cx="6.235" cy="6.235" rx="6.235" ry="6.235" transform="translate(1522.878 1138.119) rotate(-3)" fill="#2e2545"/>
      <ellipse id="Ellipse_139-2" data-name="Ellipse 139" cx="6.235" cy="6.235" rx="6.235" ry="6.235" transform="translate(1454.285 1020.594) rotate(-3)" fill="#2e2545"/>
      <ellipse id="Ellipse_141-2" data-name="Ellipse 141" cx="6.235" cy="6.235" rx="6.235" ry="6.235" transform="translate(1312.108 833.252) rotate(-3)" fill="#2e2545"/>
      <ellipse id="Ellipse_142-2" data-name="Ellipse 142" cx="6.235" cy="6.235" rx="6.235" ry="6.235" transform="translate(1512.896 875.713) rotate(-3)" fill="#2e2545"/>
      <ellipse id="Ellipse_143-3" data-name="Ellipse 143" cx="6.235" cy="6.235" rx="6.235" ry="6.235" transform="translate(1357.084 762.219) rotate(-3)" fill="#2e2545"/>
      <ellipse id="Ellipse_144-3" data-name="Ellipse 144" cx="6.235" cy="6.235" rx="6.235" ry="6.235" transform="translate(1288.937 700.859) rotate(-3)" fill="#2e2545"/>
      <ellipse id="Ellipse_145-2" data-name="Ellipse 145" cx="6.235" cy="6.235" rx="6.235" ry="6.235" transform="translate(1433.794 629.586) rotate(-3)" fill="#2e2545"/>
      <ellipse id="Ellipse_146-2" data-name="Ellipse 146" cx="6.235" cy="6.235" rx="6.235" ry="6.235" transform="translate(1508.677 748.031) rotate(-3)" fill="#2e2545"/>
      <g id="Group_144" data-name="Group 144" transform="translate(0)">
        <circle id="Ellipse_121-4" data-name="Ellipse 121" cx="6.235" cy="6.235" r="6.235" transform="matrix(0.839, 0.545, -0.545, 0.839, 18.246, 353.016)" fill="#2e2545"/>
        <circle id="Ellipse_122-3" data-name="Ellipse 122" cx="6.235" cy="6.235" r="6.235" transform="matrix(0.839, 0.545, -0.545, 0.839, 6.791, 135.371)" fill="#2e2545"/>
        <circle id="Ellipse_131-2" data-name="Ellipse 131" cx="6.235" cy="6.235" r="6.235" transform="matrix(0.839, 0.545, -0.545, 0.839, 12.993, 290.131)" fill="#2e2545"/>
        <circle id="Ellipse_132-2" data-name="Ellipse 132" cx="6.235" cy="6.235" r="6.235" transform="matrix(0.839, 0.545, -0.545, 0.839, 173.518, 406.436)" fill="#2e2545"/>
        <circle id="Ellipse_561" data-name="Ellipse 561" cx="6.235" cy="6.235" r="6.235" transform="matrix(0.839, 0.545, -0.545, 0.839, 46.518, 464.436)" fill="#2e2545"/>
        <circle id="Ellipse_133-4" data-name="Ellipse 133" cx="6.235" cy="6.235" r="6.235" transform="matrix(0.839, 0.545, -0.545, 0.839, 95.909, 501.922)" fill="#2e2545"/>
        <circle id="Ellipse_134-4" data-name="Ellipse 134" cx="6.235" cy="6.235" r="6.235" transform="matrix(0.839, 0.545, -0.545, 0.839, 32.868, 574.178)" fill="#2e2545"/>
        <circle id="Ellipse_513" data-name="Ellipse 513" cx="6.235" cy="6.235" r="6.235" transform="matrix(0.839, 0.545, -0.545, 0.839, 114.868, 588.758)" fill="#2e2545"/>
        <circle id="Ellipse_137-3" data-name="Ellipse 137" cx="6.235" cy="6.235" r="6.235" transform="matrix(0.839, 0.545, -0.545, 0.839, 174.268, 556.929)" fill="#2e2545"/>
        <circle id="Ellipse_147-2" data-name="Ellipse 147" cx="6.235" cy="6.235" r="6.235" transform="matrix(0.839, 0.545, -0.545, 0.839, 272.073, 348.152)" fill="#2e2545"/>
      </g>
    </g>
  </g>
</svg>
