<svg xmlns="http://www.w3.org/2000/svg" width="2096.757" height="668" viewBox="0 0 2096.757 668">
  <g id="Process_FullBackground_Web" transform="translate(26.162 -5406.093)">
    <rect id="Process_WhiteBackground" width="1920" height="668" transform="translate(96.895 5406.093)" fill="#fff"/>
    <g id="Process_LeftShapes_Web" transform="translate(1633.745 12765.037) rotate(-177)" opacity="0.19">
      <path id="Path_59" data-name="Path 59" d="M2153.479,5809.471l-23.39-49.38,61.508-103.958,194.921-197.52-55.444,182.793-133.413,14.727,174.13,60.643-165.467,100.493Z" transform="translate(-687.109 1214.738)" fill="none" stroke="#707070" stroke-width="1"/>
      <path id="Path_60" data-name="Path 60" d="M2208.42,5634.507l-41.583,153.338-26.856,47.647-74.5-63.241,74.5-30.321,36.385-199.253Z" transform="translate(-703.065 1235.498)" fill="none" stroke="#707070" stroke-width="1"/>
      <path id="Path_61" data-name="Path 61" d="M2472.545,5754.059l46.781-92.7,175.863,103.092L2509.8,5948.113l-37.252-187.99-136.012,90.1,64.108-151.605-41.583-77.1-172.4-78.835-112.621,221.778-50.247-90.1,192.323-38.984" transform="translate(-713.359 1235.498)" fill="none" stroke="#707070" stroke-width="1"/>
      <path id="Path_62" data-name="Path 62" d="M2191.921,5752.757l101.359,56.31L2483,5770.949l167.2-51.112" transform="translate(-671.839 1279.249)" fill="none" stroke="#707070" stroke-width="1"/>
      <path id="Path_63" data-name="Path 63" d="M2421.35,5540.062V5667.41l6.93,147.274-11.262,135.145,147.274,65.84L2631,5888.321,2596.346,5765.3l-32.054,250.366-131.68-194.921,131.68-200.119-65.84-84.9Z" transform="translate(-616.25 1233.782)" fill="none" stroke="#707070" stroke-width="1"/>
      <path id="Path_64" data-name="Path 64" d="M2346.371,5466.505l83.167,32.054,22.524,69.305-159.4,79.7,131.68-140.344,111.755-80.567,119.552,99.627-119.552,36.385V5435.318l-79.7,127.349" transform="translate(-646.961 1206.846)" fill="none" stroke="#707070" stroke-width="1"/>
      <path id="Path_65" data-name="Path 65" d="M2180.11,5624.9l12.128,151.835,124.75-171.531,162,40.716-116.953,35.519,123.017,112.621" transform="translate(-674.755 1250.939)" fill="none" stroke="#707070" stroke-width="1"/>
      <g id="Ellipse_119" data-name="Ellipse 119" transform="translate(1498.525 6863.563)" fill="#fff" stroke="#707070" stroke-width="1">
        <circle cx="6.235" cy="6.235" r="6.235" stroke="none"/>
        <circle cx="6.235" cy="6.235" r="5.735" fill="none"/>
      </g>
      <g id="Ellipse_120" data-name="Ellipse 120" transform="translate(1467.351 6773.783)" fill="#fff" stroke="#707070" stroke-width="1">
        <circle cx="6.235" cy="6.235" r="6.235" stroke="none"/>
        <circle cx="6.235" cy="6.235" r="5.735" fill="none"/>
      </g>
      <g id="Ellipse_121" data-name="Ellipse 121" transform="translate(1638.184 6848.6)" fill="#fff" stroke="#707070" stroke-width="1">
        <circle cx="6.235" cy="6.235" r="6.235" stroke="none"/>
        <circle cx="6.235" cy="6.235" r="5.735" fill="none"/>
      </g>
      <g id="Ellipse_122" data-name="Ellipse 122" transform="translate(1514.736 7023.174)" fill="#fff" stroke="#707070" stroke-width="1">
        <circle cx="6.235" cy="6.235" r="6.235" stroke="none"/>
        <circle cx="6.235" cy="6.235" r="5.735" fill="none"/>
      </g>
      <g id="Ellipse_123" data-name="Ellipse 123" transform="translate(1461.117 7016.939)" fill="#fff" stroke="#707070" stroke-width="1">
        <circle cx="6.235" cy="6.235" r="6.235" stroke="none"/>
        <circle cx="6.235" cy="6.235" r="5.735" fill="none"/>
      </g>
      <g id="Ellipse_124" data-name="Ellipse 124" transform="translate(1433.683 6969.555)" fill="#fff" stroke="#707070" stroke-width="1">
        <circle cx="6.235" cy="6.235" r="6.235" stroke="none"/>
        <circle cx="6.235" cy="6.235" r="5.735" fill="none"/>
      </g>
      <g id="Ellipse_125" data-name="Ellipse 125" transform="translate(1356.372 6996.988)" fill="#fff" stroke="#707070" stroke-width="1">
        <circle cx="6.235" cy="6.235" r="6.235" stroke="none"/>
        <circle cx="6.235" cy="6.235" r="5.735" fill="none"/>
      </g>
      <g id="Ellipse_127" data-name="Ellipse 127" transform="translate(1304 6904.713)" fill="#fff" stroke="#707070" stroke-width="1">
        <circle cx="6.235" cy="6.235" r="6.235" stroke="none"/>
        <circle cx="6.235" cy="6.235" r="5.735" fill="none"/>
      </g>
      <g id="Ellipse_128" data-name="Ellipse 128" transform="translate(1553.391 6809.944)" fill="#fff" stroke="#707070" stroke-width="1">
        <circle cx="6.235" cy="6.235" r="6.235" stroke="none"/>
        <circle cx="6.235" cy="6.235" r="5.735" fill="none"/>
      </g>
      <g id="Ellipse_129" data-name="Ellipse 129" transform="translate(1680.581 6925.911)" fill="#fff" stroke="#707070" stroke-width="1">
        <circle cx="6.235" cy="6.235" r="6.235" stroke="none"/>
        <circle cx="6.235" cy="6.235" r="5.735" fill="none"/>
      </g>
      <g id="Ellipse_130" data-name="Ellipse 130" transform="translate(1616.986 7079.287)" fill="#fff" stroke="#707070" stroke-width="1">
        <circle cx="6.235" cy="6.235" r="6.235" stroke="none"/>
        <circle cx="6.235" cy="6.235" r="5.735" fill="none"/>
      </g>
      <g id="Ellipse_131" data-name="Ellipse 131" transform="translate(1599.529 6898.478)" fill="#fff" stroke="#707070" stroke-width="1">
        <circle cx="6.235" cy="6.235" r="6.235" stroke="none"/>
        <circle cx="6.235" cy="6.235" r="5.735" fill="none"/>
      </g>
      <g id="Ellipse_132" data-name="Ellipse 132" transform="translate(1797.795 6889.75)" fill="#fff" stroke="#707070" stroke-width="1">
        <circle cx="6.235" cy="6.235" r="6.235" stroke="none"/>
        <circle cx="6.235" cy="6.235" r="5.735" fill="none"/>
      </g>
      <g id="Ellipse_133" data-name="Ellipse 133" transform="translate(1797.795 6767.548)" fill="#fff" stroke="#707070" stroke-width="1">
        <circle cx="6.235" cy="6.235" r="6.235" stroke="none"/>
        <circle cx="6.235" cy="6.235" r="5.735" fill="none"/>
      </g>
      <g id="Ellipse_134" data-name="Ellipse 134" transform="translate(1776.597 6702.706)" fill="#fff" stroke="#707070" stroke-width="1">
        <circle cx="6.235" cy="6.235" r="6.235" stroke="none"/>
        <circle cx="6.235" cy="6.235" r="5.735" fill="none"/>
      </g>
      <g id="Ellipse_135" data-name="Ellipse 135" transform="translate(1693.05 6667.792)" fill="#fff" stroke="#707070" stroke-width="1">
        <circle cx="6.235" cy="6.235" r="6.235" stroke="none"/>
        <circle cx="6.235" cy="6.235" r="5.735" fill="none"/>
      </g>
      <g id="Ellipse_136" data-name="Ellipse 136" transform="translate(1882.588 6634.124)" fill="#fff" stroke="#707070" stroke-width="1">
        <circle cx="6.235" cy="6.235" r="6.235" stroke="none"/>
        <circle cx="6.235" cy="6.235" r="5.735" fill="none"/>
      </g>
      <g id="Ellipse_137" data-name="Ellipse 137" transform="translate(1880.094 6762.56)" fill="#fff" stroke="#707070" stroke-width="1">
        <circle cx="6.235" cy="6.235" r="6.235" stroke="none"/>
        <circle cx="6.235" cy="6.235" r="5.735" fill="none"/>
      </g>
      <g id="Ellipse_138" data-name="Ellipse 138" transform="translate(2002.296 6727.645)" fill="#fff" stroke="#707070" stroke-width="1">
        <circle cx="6.235" cy="6.235" r="6.235" stroke="none"/>
        <circle cx="6.235" cy="6.235" r="5.735" fill="none"/>
      </g>
      <g id="Ellipse_139" data-name="Ellipse 139" transform="translate(1939.948 6848.6)" fill="#fff" stroke="#707070" stroke-width="1">
        <circle cx="6.235" cy="6.235" r="6.235" stroke="none"/>
        <circle cx="6.235" cy="6.235" r="5.735" fill="none"/>
      </g>
      <g id="Ellipse_140" data-name="Ellipse 140" transform="translate(1749.163 6988.259)" fill="#fff" stroke="#707070" stroke-width="1">
        <circle cx="6.235" cy="6.235" r="6.235" stroke="none"/>
        <circle cx="6.235" cy="6.235" r="5.735" fill="none"/>
      </g>
      <g id="Ellipse_141" data-name="Ellipse 141" transform="translate(1807.77 7043.125)" fill="#fff" stroke="#707070" stroke-width="1">
        <circle cx="6.235" cy="6.235" r="6.235" stroke="none"/>
        <circle cx="6.235" cy="6.235" r="5.735" fill="none"/>
      </g>
      <g id="Ellipse_142" data-name="Ellipse 142" transform="translate(1972.369 6996.988)" fill="#fff" stroke="#707070" stroke-width="1">
        <circle cx="6.235" cy="6.235" r="6.235" stroke="none"/>
        <circle cx="6.235" cy="6.235" r="5.735" fill="none"/>
      </g>
      <g id="Ellipse_143" data-name="Ellipse 143" transform="translate(1856.402 7111.708)" fill="#fff" stroke="#707070" stroke-width="1">
        <circle cx="6.235" cy="6.235" r="6.235" stroke="none"/>
        <circle cx="6.235" cy="6.235" r="5.735" fill="none"/>
      </g>
      <g id="Ellipse_144" data-name="Ellipse 144" transform="translate(1791.56 7176.55)" fill="#fff" stroke="#707070" stroke-width="1">
        <circle cx="6.235" cy="6.235" r="6.235" stroke="none"/>
        <circle cx="6.235" cy="6.235" r="5.735" fill="none"/>
      </g>
      <g id="Ellipse_145" data-name="Ellipse 145" transform="translate(1939.948 7240.145)" fill="#fff" stroke="#707070" stroke-width="1">
        <circle cx="6.235" cy="6.235" r="6.235" stroke="none"/>
        <circle cx="6.235" cy="6.235" r="5.735" fill="none"/>
      </g>
      <g id="Ellipse_147" data-name="Ellipse 147" transform="translate(1881.341 6938.381)" fill="#fff" stroke="#707070" stroke-width="1">
        <circle cx="6.235" cy="6.235" r="6.235" stroke="none"/>
        <circle cx="6.235" cy="6.235" r="5.735" fill="none"/>
      </g>
      <g id="Ellipse_146" data-name="Ellipse 146" transform="translate(2008.53 7117.942)" fill="#fff" stroke="#707070" stroke-width="1">
        <circle cx="6.235" cy="6.235" r="6.235" stroke="none"/>
        <circle cx="6.235" cy="6.235" r="5.735" fill="none"/>
      </g>
      <g id="Ellipse_126" data-name="Ellipse 126" transform="translate(1409.991 6883.515)" fill="#fff" stroke="#707070" stroke-width="1">
        <circle cx="6.235" cy="6.235" r="6.235" stroke="none"/>
        <circle cx="6.235" cy="6.235" r="5.735" fill="none"/>
      </g>
    </g>
    <g id="Process_RightShapes_Web" transform="translate(-25.105 -1185.072)" opacity="0.19">
      <path id="Path_59-2" data-name="Path 59" d="M2153.479,5809.471l-23.39-49.38,61.508-103.958,194.921-197.52-55.444,182.793-133.413,14.727,174.13,60.643-165.467,100.493Z" transform="translate(-687.109 1214.738)" fill="none" stroke="#707070" stroke-width="1"/>
      <path id="Path_60-2" data-name="Path 60" d="M2208.42,5634.507l-41.583,153.338-26.856,47.647-74.5-63.241,74.5-30.321,36.385-199.253Z" transform="translate(-703.065 1235.498)" fill="none" stroke="#707070" stroke-width="1"/>
      <path id="Path_61-2" data-name="Path 61" d="M2472.545,5754.059l46.781-92.7,175.863,103.092L2509.8,5948.113l-37.252-187.99-136.012,90.1,64.108-151.605-41.583-77.1-172.4-78.835-112.621,221.778-50.247-90.1,192.323-38.984" transform="translate(-713.359 1235.498)" fill="none" stroke="#707070" stroke-width="1"/>
      <path id="Path_62-2" data-name="Path 62" d="M2191.921,5752.757l101.359,56.31L2483,5770.949l167.2-51.112" transform="translate(-671.839 1279.249)" fill="none" stroke="#707070" stroke-width="1"/>
      <path id="Path_63-2" data-name="Path 63" d="M2421.35,5540.062V5667.41l6.93,147.274-11.262,135.145,147.274,65.84L2631,5888.321,2596.346,5765.3l-32.054,250.366-131.68-194.921,131.68-200.119-65.84-84.9Z" transform="translate(-616.25 1233.782)" fill="none" stroke="#707070" stroke-width="1"/>
      <path id="Path_64-2" data-name="Path 64" d="M2346.371,5466.505l83.167,32.054,22.524,69.305-159.4,79.7,131.68-140.344,111.755-80.567,119.552,99.627-119.552,36.385V5435.318l-79.7,127.349" transform="translate(-646.961 1206.846)" fill="none" stroke="#707070" stroke-width="1"/>
      <path id="Path_65-2" data-name="Path 65" d="M2180.11,5624.9l12.128,151.835,124.75-171.531,162,40.716-116.953,35.519,123.017,112.621" transform="translate(-674.755 1250.939)" fill="none" stroke="#707070" stroke-width="1"/>
      <path id="Path_691" data-name="Path 691" d="M-6419.541,6121.376l-30.057-141.868,62.518-121.43,81.755,224.224L-6452.6,5976.5" transform="translate(8400 877.164)" fill="none" stroke="#707070" stroke-width="1"/>
      <g id="Ellipse_119-2" data-name="Ellipse 119" transform="translate(1498.525 6863.563)" fill="#fff" stroke="#707070" stroke-width="1">
        <circle cx="6.235" cy="6.235" r="6.235" stroke="none"/>
        <circle cx="6.235" cy="6.235" r="5.735" fill="none"/>
      </g>
      <g id="Ellipse_120-2" data-name="Ellipse 120" transform="translate(1467.351 6773.783)" fill="#fff" stroke="#707070" stroke-width="1">
        <circle cx="6.235" cy="6.235" r="6.235" stroke="none"/>
        <circle cx="6.235" cy="6.235" r="5.735" fill="none"/>
      </g>
      <g id="Ellipse_121-2" data-name="Ellipse 121" transform="translate(1638.184 6848.6)" fill="#fff" stroke="#707070" stroke-width="1">
        <circle cx="6.235" cy="6.235" r="6.235" stroke="none"/>
        <circle cx="6.235" cy="6.235" r="5.735" fill="none"/>
      </g>
      <g id="Ellipse_122-2" data-name="Ellipse 122" transform="translate(1514.736 7023.174)" fill="#fff" stroke="#707070" stroke-width="1">
        <circle cx="6.235" cy="6.235" r="6.235" stroke="none"/>
        <circle cx="6.235" cy="6.235" r="5.735" fill="none"/>
      </g>
      <g id="Ellipse_123-2" data-name="Ellipse 123" transform="translate(1461.117 7016.939)" fill="#fff" stroke="#707070" stroke-width="1">
        <circle cx="6.235" cy="6.235" r="6.235" stroke="none"/>
        <circle cx="6.235" cy="6.235" r="5.735" fill="none"/>
      </g>
      <g id="Ellipse_124-2" data-name="Ellipse 124" transform="translate(1433.683 6969.555)" fill="#fff" stroke="#707070" stroke-width="1">
        <circle cx="6.235" cy="6.235" r="6.235" stroke="none"/>
        <circle cx="6.235" cy="6.235" r="5.735" fill="none"/>
      </g>
      <g id="Ellipse_125-2" data-name="Ellipse 125" transform="translate(1356.372 6996.988)" fill="#fff" stroke="#707070" stroke-width="1">
        <circle cx="6.235" cy="6.235" r="6.235" stroke="none"/>
        <circle cx="6.235" cy="6.235" r="5.735" fill="none"/>
      </g>
      <g id="Ellipse_127-2" data-name="Ellipse 127" transform="translate(1304 6904.713)" fill="#fff" stroke="#707070" stroke-width="1">
        <circle cx="6.235" cy="6.235" r="6.235" stroke="none"/>
        <circle cx="6.235" cy="6.235" r="5.735" fill="none"/>
      </g>
      <g id="Ellipse_128-2" data-name="Ellipse 128" transform="translate(1553.391 6809.944)" fill="#fff" stroke="#707070" stroke-width="1">
        <circle cx="6.235" cy="6.235" r="6.235" stroke="none"/>
        <circle cx="6.235" cy="6.235" r="5.735" fill="none"/>
      </g>
      <g id="Ellipse_129-2" data-name="Ellipse 129" transform="translate(1680.581 6925.911)" fill="#fff" stroke="#707070" stroke-width="1">
        <circle cx="6.235" cy="6.235" r="6.235" stroke="none"/>
        <circle cx="6.235" cy="6.235" r="5.735" fill="none"/>
      </g>
      <g id="Ellipse_130-2" data-name="Ellipse 130" transform="translate(1616.986 7079.287)" fill="#fff" stroke="#707070" stroke-width="1">
        <circle cx="6.235" cy="6.235" r="6.235" stroke="none"/>
        <circle cx="6.235" cy="6.235" r="5.735" fill="none"/>
      </g>
      <g id="Ellipse_131-2" data-name="Ellipse 131" transform="translate(1599.529 6898.478)" fill="#fff" stroke="#707070" stroke-width="1">
        <circle cx="6.235" cy="6.235" r="6.235" stroke="none"/>
        <circle cx="6.235" cy="6.235" r="5.735" fill="none"/>
      </g>
      <g id="Ellipse_132-2" data-name="Ellipse 132" transform="translate(1797.795 6889.75)" fill="#fff" stroke="#707070" stroke-width="1">
        <circle cx="6.235" cy="6.235" r="6.235" stroke="none"/>
        <circle cx="6.235" cy="6.235" r="5.735" fill="none"/>
      </g>
      <g id="Ellipse_133-2" data-name="Ellipse 133" transform="translate(1797.795 6767.548)" fill="#fff" stroke="#707070" stroke-width="1">
        <circle cx="6.235" cy="6.235" r="6.235" stroke="none"/>
        <circle cx="6.235" cy="6.235" r="5.735" fill="none"/>
      </g>
      <g id="Ellipse_134-2" data-name="Ellipse 134" transform="translate(1776.597 6702.706)" fill="#fff" stroke="#707070" stroke-width="1">
        <circle cx="6.235" cy="6.235" r="6.235" stroke="none"/>
        <circle cx="6.235" cy="6.235" r="5.735" fill="none"/>
      </g>
      <g id="Ellipse_135-2" data-name="Ellipse 135" transform="translate(1693.05 6667.792)" fill="#fff" stroke="#707070" stroke-width="1">
        <circle cx="6.235" cy="6.235" r="6.235" stroke="none"/>
        <circle cx="6.235" cy="6.235" r="5.735" fill="none"/>
      </g>
      <g id="Ellipse_136-2" data-name="Ellipse 136" transform="translate(1882.588 6634.124)" fill="#fff" stroke="#707070" stroke-width="1">
        <circle cx="6.235" cy="6.235" r="6.235" stroke="none"/>
        <circle cx="6.235" cy="6.235" r="5.735" fill="none"/>
      </g>
      <g id="Ellipse_137-2" data-name="Ellipse 137" transform="translate(1880.094 6762.56)" fill="#fff" stroke="#707070" stroke-width="1">
        <circle cx="6.235" cy="6.235" r="6.235" stroke="none"/>
        <circle cx="6.235" cy="6.235" r="5.735" fill="none"/>
      </g>
      <g id="Ellipse_138-2" data-name="Ellipse 138" transform="translate(2002.296 6727.645)" fill="#fff" stroke="#707070" stroke-width="1">
        <circle cx="6.235" cy="6.235" r="6.235" stroke="none"/>
        <circle cx="6.235" cy="6.235" r="5.735" fill="none"/>
      </g>
      <g id="Ellipse_139-2" data-name="Ellipse 139" transform="translate(1939.948 6848.6)" fill="#fff" stroke="#707070" stroke-width="1">
        <circle cx="6.235" cy="6.235" r="6.235" stroke="none"/>
        <circle cx="6.235" cy="6.235" r="5.735" fill="none"/>
      </g>
      <g id="Ellipse_140-2" data-name="Ellipse 140" transform="translate(1749.163 6988.259)" fill="#fff" stroke="#707070" stroke-width="1">
        <circle cx="6.235" cy="6.235" r="6.235" stroke="none"/>
        <circle cx="6.235" cy="6.235" r="5.735" fill="none"/>
      </g>
      <g id="Ellipse_141-2" data-name="Ellipse 141" transform="translate(1807.77 7043.125)" fill="#fff" stroke="#707070" stroke-width="1">
        <circle cx="6.235" cy="6.235" r="6.235" stroke="none"/>
        <circle cx="6.235" cy="6.235" r="5.735" fill="none"/>
      </g>
      <g id="Ellipse_142-2" data-name="Ellipse 142" transform="translate(1972.369 6996.988)" fill="#fff" stroke="#707070" stroke-width="1">
        <circle cx="6.235" cy="6.235" r="6.235" stroke="none"/>
        <circle cx="6.235" cy="6.235" r="5.735" fill="none"/>
      </g>
      <g id="Ellipse_143-2" data-name="Ellipse 143" transform="translate(1856.402 7111.708)" fill="#fff" stroke="#707070" stroke-width="1">
        <circle cx="6.235" cy="6.235" r="6.235" stroke="none"/>
        <circle cx="6.235" cy="6.235" r="5.735" fill="none"/>
      </g>
      <g id="Ellipse_144-2" data-name="Ellipse 144" transform="translate(1791.56 7176.55)" fill="#fff" stroke="#707070" stroke-width="1">
        <circle cx="6.235" cy="6.235" r="6.235" stroke="none"/>
        <circle cx="6.235" cy="6.235" r="5.735" fill="none"/>
      </g>
      <g id="Ellipse_145-2" data-name="Ellipse 145" transform="translate(1939.948 7240.145)" fill="#fff" stroke="#707070" stroke-width="1">
        <circle cx="6.235" cy="6.235" r="6.235" stroke="none"/>
        <circle cx="6.235" cy="6.235" r="5.735" fill="none"/>
      </g>
      <g id="Ellipse_147-2" data-name="Ellipse 147" transform="translate(1881.341 6938.381)" fill="#fff" stroke="#707070" stroke-width="1">
        <circle cx="6.235" cy="6.235" r="6.235" stroke="none"/>
        <circle cx="6.235" cy="6.235" r="5.735" fill="none"/>
      </g>
      <g id="Ellipse_146-2" data-name="Ellipse 146" transform="translate(2008.53 7117.942)" fill="#fff" stroke="#707070" stroke-width="1">
        <circle cx="6.235" cy="6.235" r="6.235" stroke="none"/>
        <circle cx="6.235" cy="6.235" r="5.735" fill="none"/>
      </g>
      <g id="Ellipse_126-2" data-name="Ellipse 126" transform="translate(1409.991 6883.515)" fill="#fff" stroke="#707070" stroke-width="1">
        <circle cx="6.235" cy="6.235" r="6.235" stroke="none"/>
        <circle cx="6.235" cy="6.235" r="5.735" fill="none"/>
      </g>
    </g>
  </g>
</svg>
