<svg xmlns="http://www.w3.org/2000/svg" xmlns:xlink="http://www.w3.org/1999/xlink" width="78.947" height="80.865" viewBox="0 0 78.947 80.865">
  <defs>
    <linearGradient id="linear-gradient" x1="0.712" y1="0.284" x2="0.5" y2="1" gradientUnits="objectBoundingBox">
      <stop offset="0" stop-color="#ceced5"/>
      <stop offset="0.736" stop-color="#707074"/>
      <stop offset="1" stop-color="#67676b"/>
    </linearGradient>
  </defs>
  <g id="Menu_SmallLogo_Web" transform="translate(-5060.711 -3717.204)">
    <path id="Subtraction_43" data-name="Subtraction 43" d="M0,65.566V58.937A26.208,26.208,0,0,0,26.034,32.783,26.208,26.208,0,0,0,0,6.629V0A33.013,33.013,0,0,1,6.486.666a32.569,32.569,0,0,1,6.153,1.91A32.771,32.771,0,0,1,18.209,5.6a33.01,33.01,0,0,1,4.852,4,33.014,33.014,0,0,1,4,4.852,32.785,32.785,0,0,1,3.023,5.569A32.65,32.65,0,0,1,32,26.176a33.037,33.037,0,0,1,.666,6.607A33.037,33.037,0,0,1,32,39.39a32.648,32.648,0,0,1-1.91,6.154,32.784,32.784,0,0,1-3.023,5.569,33.008,33.008,0,0,1-4,4.852,33.01,33.01,0,0,1-4.852,4A32.768,32.768,0,0,1,12.64,62.99,32.6,32.6,0,0,1,6.486,64.9,33.013,33.013,0,0,1,0,65.566Z" transform="translate(5100.305 3723.954)" fill="#74aef9" opacity="0"/>
    <path id="Path_812" data-name="Path 812" d="M21091.148,1118.936" transform="translate(-16007.099 2629.838)" fill="none" stroke="#707070" stroke-width="1"/>
    <g id="Group_202" data-name="Group 202" transform="translate(5073.849 3798.063)">
      <g id="Group_189" data-name="Group 189" transform="translate(0 0)">
        <path id="Path_790" data-name="Path 790" d="M18867.941,635.291" transform="translate(-18867.883 -635.291)" fill="none" stroke="#707070" stroke-width="1"/>
        <path id="Path_799" data-name="Path 799" d="M6102.434,1429.248" transform="translate(-6102.434 -1429.243)" fill="none" stroke="#707070" stroke-width="1"/>
      </g>
    </g>
    <g id="Group_200" data-name="Group 200" transform="translate(5076.058 3770.755) rotate(-90)">
      <g id="Group_174" data-name="Group 174" transform="translate(0 0)">
        <path id="Path_748" data-name="Path 748" d="M10.161,7.3,25.416,29.546,22.477,35.77,0,3.219,4.853,0Z" transform="translate(21.211 3.219)" fill="#fff"/>
        <path id="Path_751" data-name="Path 751" d="M23.46,2.606S21.571-.348,18.982.034a2.881,2.881,0,0,0-1.1.481A5.24,5.24,0,0,0,16.263,2.24L0,25.7l4.85,3.269L19.559,7.826s1.165-1.847,2.631-1.847,3.72,1.847,3.72,1.847l3.244,2.741Z" transform="translate(2.217)" fill="#fff"/>
        <g id="Group_169" data-name="Group 169" transform="translate(0 21.925)">
          <g id="Path_764" data-name="Path 764" fill="#06041d">
            <path d="M 4.781892776489258 8.313782691955566 C 2.834402799606323 8.313782691955566 1.25000274181366 6.729382991790771 1.25000274181366 4.781892776489258 C 1.25000274181366 2.834402799606323 2.834402799606323 1.25000274181366 4.781892776489258 1.25000274181366 C 6.729382991790771 1.25000274181366 8.313782691955566 2.834402799606323 8.313782691955566 4.781892776489258 C 8.313782691955566 6.729382991790771 6.729382991790771 8.313782691955566 4.781892776489258 8.313782691955566 Z" stroke="none"/>
            <path d="M 4.781892776489258 2.500002861022949 C 3.52365255355835 2.500002861022949 2.500002861022949 3.52365255355835 2.500002861022949 4.781892776489258 C 2.500002861022949 6.040132522583008 3.52365255355835 7.063782691955566 4.781892776489258 7.063782691955566 C 6.040132522583008 7.063782691955566 7.063782691955566 6.040132522583008 7.063782691955566 4.781892776489258 C 7.063782691955566 3.52365255355835 6.040132522583008 2.500002861022949 4.781892776489258 2.500002861022949 M 4.781892776489258 2.86102294921875e-06 C 7.422863006591797 2.86102294921875e-06 9.563782691955566 2.140922546386719 9.563782691955566 4.781892776489258 C 9.563782691955566 7.422863006591797 7.422863006591797 9.563782691955566 4.781892776489258 9.563782691955566 C 2.140922546386719 9.563782691955566 2.86102294921875e-06 7.422863006591797 2.86102294921875e-06 4.781892776489258 C 2.86102294921875e-06 2.140922546386719 2.140922546386719 2.86102294921875e-06 4.781892776489258 2.86102294921875e-06 Z" stroke="none" fill="#fff"/>
          </g>
        </g>
        <path id="Path_753" data-name="Path 753" d="M9.932,4.975S5.333,1.963,4.913,1.8,2.767.675,1.9,1.158A4.026,4.026,0,0,0,.568,2.412L0,1.579A7.322,7.322,0,0,1,1.162.437,2.7,2.7,0,0,1,2.229.009a2.765,2.765,0,0,1,.748.067,7.546,7.546,0,0,1,2.24,1.082c.547.353,2.958,2.208,4.161,3.211A2.539,2.539,0,0,1,9.932,4.975Z" transform="translate(21.974 5.974)" fill="#06041d"/>
        <g id="Group_266" data-name="Group 266" transform="translate(18.258 17.23)">
          <g id="Path_764-2" data-name="Path 764" fill="#06041d">
            <path d="M 4.781892776489258 7.563782691955566 C 3.247952699661255 7.563782691955566 2.000002861022949 6.315832614898682 2.000002861022949 4.781892776489258 C 2.000002861022949 3.247952699661255 3.247952699661255 2.000002861022949 4.781892776489258 2.000002861022949 C 6.315832614898682 2.000002861022949 7.563782691955566 3.247952699661255 7.563782691955566 4.781892776489258 C 7.563782691955566 6.315832614898682 6.315832614898682 7.563782691955566 4.781892776489258 7.563782691955566 Z" stroke="none"/>
            <path d="M 4.781892776489258 4.000002861022949 C 4.350752830505371 4.000002861022949 4.000002861022949 4.350752830505371 4.000002861022949 4.781892776489258 C 4.000002861022949 5.213032722473145 4.350752830505371 5.563782691955566 4.781892776489258 5.563782691955566 C 5.213032722473145 5.563782691955566 5.563782691955566 5.213032722473145 5.563782691955566 4.781892776489258 C 5.563782691955566 4.350752830505371 5.213032722473145 4.000002861022949 4.781892776489258 4.000002861022949 M 4.781892776489258 2.86102294921875e-06 C 7.422863006591797 2.86102294921875e-06 9.563782691955566 2.140922546386719 9.563782691955566 4.781892776489258 C 9.563782691955566 7.422863006591797 7.422863006591797 9.563782691955566 4.781892776489258 9.563782691955566 C 2.140922546386719 9.563782691955566 2.86102294921875e-06 7.422863006591797 2.86102294921875e-06 4.781892776489258 C 2.86102294921875e-06 2.140922546386719 2.140922546386719 2.86102294921875e-06 4.781892776489258 2.86102294921875e-06 Z" stroke="none" fill="#0e8df8"/>
          </g>
        </g>
      </g>
    </g>
    <g id="Group_201" data-name="Group 201" transform="translate(5127.22 3746.362) rotate(90)">
      <g id="Group_174-2" data-name="Group 174" transform="translate(0 0)">
        <path id="Path_751-2" data-name="Path 751" d="M23.572,2.606S21.682-.348,19.094.034a2.881,2.881,0,0,0-1.1.481A5.24,5.24,0,0,0,16.374,2.24L0,25.535,5.709,28.06,19.671,7.826S20.836,5.979,22.3,5.979s3.72,1.847,3.72,1.847l3.244,2.741Z" fill="#fff"/>
        <path id="Path_748-2" data-name="Path 748" d="M10.161,7.3,25.416,29.546,22.477,35.77,0,3.219,4.853,0Z" transform="translate(19.105 3.219)" fill="#fff"/>
        <path id="Path_753-2" data-name="Path 753" d="M9.932,4.975S5.333,1.963,4.913,1.8,2.767.675,1.9,1.158A4.026,4.026,0,0,0,.568,2.412L0,1.579A7.322,7.322,0,0,1,1.162.437,2.7,2.7,0,0,1,2.229.009a2.765,2.765,0,0,1,.748.067,7.546,7.546,0,0,1,2.24,1.082c.547.353,2.958,2.208,4.161,3.211A2.539,2.539,0,0,1,9.932,4.975Z" transform="translate(19.868 5.974)" fill="#06041d"/>
      </g>
    </g>
    <path id="Subtraction_44" data-name="Subtraction 44" d="M39.474,78.945a39.742,39.742,0,0,1-7.956-.8,39.2,39.2,0,0,1-7.409-2.3c-.754-.319-1.511-.667-2.248-1.036l6.425-4.479A32.769,32.769,0,0,0,55.919,67.92l5.887,4.1-.263.179a39.311,39.311,0,0,1-22.069,6.741Zm-23.15-7.5a39.694,39.694,0,0,1-9.582-9.905A39.469,39.469,0,0,1,60.062,5.789l-6.113,4.3a32.777,32.777,0,0,0-31.777,57.24l-5.848,4.116Zm50.286-3.31-5.545-3.9a32.712,32.712,0,0,0,7.746-39.444A33.178,33.178,0,0,0,59.437,13.5l5.728-3.993c.758.65,1.5,1.342,2.22,2.056a39.55,39.55,0,0,1,8.459,12.547,39.332,39.332,0,0,1,2.3,7.409,39.845,39.845,0,0,1,0,15.91A39.25,39.25,0,0,1,72.2,61.542a39.767,39.767,0,0,1-4.82,5.842c-.246.246-.506.5-.775.754h0Z" transform="translate(5060.711 3717.204)" fill="#fff"/>
    <path id="Subtraction_48" data-name="Subtraction 48" d="M7.174,58.633h0l-5.544-3.9a32.792,32.792,0,0,0,11.252-24.7A32.576,32.576,0,0,0,0,3.994L5.729,0c.762.654,1.509,1.346,2.22,2.056A39.834,39.834,0,0,1,12.769,7.9a39.567,39.567,0,0,1,3.64,6.7,39.226,39.226,0,0,1,3.1,15.364,39.227,39.227,0,0,1-3.1,15.365,39.567,39.567,0,0,1-3.64,6.7,39.844,39.844,0,0,1-4.82,5.842c-.256.256-.517.509-.774.753Z" transform="translate(5120.147 3726.709)" fill="url(#linear-gradient)"/>
    <g id="Group_267" data-name="Group 267" transform="translate(5093.288 3752.497) rotate(-90)">
      <g id="Path_764-3" data-name="Path 764" fill="#06041d">
        <path d="M 4.781892776489258 8.313782691955566 C 2.834402799606323 8.313782691955566 1.25000274181366 6.729382991790771 1.25000274181366 4.781892776489258 C 1.25000274181366 2.834402799606323 2.834402799606323 1.25000274181366 4.781892776489258 1.25000274181366 C 6.729382991790771 1.25000274181366 8.313782691955566 2.834402799606323 8.313782691955566 4.781892776489258 C 8.313782691955566 6.729382991790771 6.729382991790771 8.313782691955566 4.781892776489258 8.313782691955566 Z" stroke="none"/>
        <path d="M 4.781892776489258 2.500002861022949 C 3.52365255355835 2.500002861022949 2.500002861022949 3.52365255355835 2.500002861022949 4.781892776489258 C 2.500002861022949 6.040132522583008 3.52365255355835 7.063782691955566 4.781892776489258 7.063782691955566 C 6.040132522583008 7.063782691955566 7.063782691955566 6.040132522583008 7.063782691955566 4.781892776489258 C 7.063782691955566 3.52365255355835 6.040132522583008 2.500002861022949 4.781892776489258 2.500002861022949 M 4.781892776489258 2.86102294921875e-06 C 7.422863006591797 2.86102294921875e-06 9.563782691955566 2.140922546386719 9.563782691955566 4.781892776489258 C 9.563782691955566 7.422863006591797 7.422863006591797 9.563782691955566 4.781892776489258 9.563782691955566 C 2.140922546386719 9.563782691955566 2.86102294921875e-06 7.422863006591797 2.86102294921875e-06 4.781892776489258 C 2.86102294921875e-06 2.140922546386719 2.140922546386719 2.86102294921875e-06 4.781892776489258 2.86102294921875e-06 Z" stroke="none" fill="#fff"/>
      </g>
    </g>
  </g>
</svg>
